<svg width="417" height="417" viewBox="0 0 417 417" fill="none" xmlns="http://www.w3.org/2000/svg">
<circle cx="208.065" cy="208.065" r="198.065" fill="#007BFF" stroke="black" stroke-width="20"/>
<circle cx="208.064" cy="208.065" r="94.71" fill="white" stroke="black" stroke-width="10"/>
<mask id="path-3-outside-1_647_2724" maskUnits="userSpaceOnUse" x="160.564" y="153.065" width="94" height="109" fill="black">
<rect fill="white" x="160.564" y="153.065" width="94" height="109"/>
<path d="M190.449 182.896L210.306 198.395L226.168 184.107L215.149 171.999L190.449 182.896ZM183.426 235.567L214.544 243.316L234.522 229.634L210.669 211.108L183.426 235.567ZM214.302 253.244L172.166 242.831L169.986 234.477L202.799 205.054L177.856 185.439L178.946 177.205L214.302 161.707L219.993 162.918L236.581 181.201L236.339 188.224L218.176 204.57L245.783 226.001L245.541 234.114L218.297 252.639L214.302 253.244Z"/>
</mask>
<path d="M190.449 182.896L210.306 198.395L226.168 184.107L215.149 171.999L190.449 182.896ZM183.426 235.567L214.544 243.316L234.522 229.634L210.669 211.108L183.426 235.567ZM214.302 253.244L172.166 242.831L169.986 234.477L202.799 205.054L177.856 185.439L178.946 177.205L214.302 161.707L219.993 162.918L236.581 181.201L236.339 188.224L218.176 204.57L245.783 226.001L245.541 234.114L218.297 252.639L214.302 253.244Z" fill="#007BFF"/>
<path d="M190.449 182.896L187.267 175.685L175.213 181.003L185.599 189.11L190.449 182.896ZM210.306 198.395L205.457 204.608L210.669 208.676L215.581 204.251L210.306 198.395ZM226.168 184.107L231.443 189.963L237.329 184.661L231.997 178.802L226.168 184.107ZM215.149 171.999L220.979 166.694L217.16 162.497L211.968 164.788L215.149 171.999ZM183.426 235.567L178.161 229.702L167.107 239.625L181.521 243.215L183.426 235.567ZM214.544 243.316L212.639 250.964L216.076 251.82L218.997 249.819L214.544 243.316ZM234.522 229.634L238.976 236.137L247.887 230.034L239.357 223.409L234.522 229.634ZM210.669 211.108L215.504 204.883L210.304 200.844L205.404 205.243L210.669 211.108ZM214.302 253.244L212.411 260.896L213.933 261.272L215.482 261.037L214.302 253.244ZM172.166 242.831L164.539 244.821L165.723 249.358L170.275 250.483L172.166 242.831ZM169.986 234.477L164.724 228.609L161.147 231.817L162.36 236.466L169.986 234.477ZM202.799 205.054L208.061 210.922L215.046 204.659L207.671 198.859L202.799 205.054ZM177.856 185.439L170.043 184.405L169.453 188.858L172.984 191.634L177.856 185.439ZM178.946 177.205L175.782 169.987L171.715 171.769L171.132 176.171L178.946 177.205ZM214.302 161.707L215.942 153.998L213.461 153.47L211.137 154.488L214.302 161.707ZM219.993 162.918L225.83 157.622L224.121 155.738L221.633 155.209L219.993 162.918ZM236.581 181.201L244.458 181.473L244.568 178.275L242.418 175.905L236.581 181.201ZM236.339 188.224L241.611 194.082L244.1 191.842L244.216 188.495L236.339 188.224ZM218.176 204.57L212.904 198.711L205.898 205.016L213.343 210.796L218.176 204.57ZM245.783 226.001L253.661 226.236L253.781 222.232L250.616 219.775L245.783 226.001ZM245.541 234.114L249.973 240.631L253.299 238.369L253.419 234.349L245.541 234.114ZM218.297 252.639L219.478 260.432L221.249 260.164L222.729 259.157L218.297 252.639ZM190.449 182.896L185.599 189.11L205.457 204.608L210.306 198.395L215.156 192.181L195.298 176.683L190.449 182.896ZM210.306 198.395L215.581 204.251L231.443 189.963L226.168 184.107L220.893 178.251L205.031 192.538L210.306 198.395ZM226.168 184.107L231.997 178.802L220.979 166.694L215.149 171.999L209.32 177.304L220.338 189.412L226.168 184.107ZM215.149 171.999L211.968 164.788L187.267 175.685L190.449 182.896L193.63 190.107L218.331 179.21L215.149 171.999ZM183.426 235.567L181.521 243.215L212.639 250.964L214.544 243.316L216.449 235.668L185.331 227.918L183.426 235.567ZM214.544 243.316L218.997 249.819L238.976 236.137L234.522 229.634L230.069 223.131L210.09 236.813L214.544 243.316ZM234.522 229.634L239.357 223.409L215.504 204.883L210.669 211.108L205.835 217.333L229.688 235.858L234.522 229.634ZM210.669 211.108L205.404 205.243L178.161 229.702L183.426 235.567L188.692 241.432L215.935 216.973L210.669 211.108ZM214.302 253.244L216.193 245.593L174.056 235.18L172.166 242.831L170.275 250.483L212.411 260.896L214.302 253.244ZM172.166 242.831L179.792 240.842L177.613 232.487L169.986 234.477L162.36 236.466L164.539 244.821L172.166 242.831ZM169.986 234.477L175.248 240.345L208.061 210.922L202.799 205.054L197.537 199.186L164.724 228.609L169.986 234.477ZM202.799 205.054L207.671 198.859L182.729 179.243L177.856 185.439L172.984 191.634L197.927 211.25L202.799 205.054ZM177.856 185.439L185.67 186.473L186.76 178.24L178.946 177.205L171.132 176.171L170.043 184.405L177.856 185.439ZM178.946 177.205L182.11 184.424L217.466 168.926L214.302 161.707L211.137 154.488L175.782 169.987L178.946 177.205ZM214.302 161.707L212.662 169.416L218.352 170.627L219.993 162.918L221.633 155.209L215.942 153.998L214.302 161.707ZM219.993 162.918L214.155 168.214L230.743 186.497L236.581 181.201L242.418 175.905L225.83 157.622L219.993 162.918ZM236.581 181.201L228.704 180.93L228.461 187.952L236.339 188.224L244.216 188.495L244.458 181.473L236.581 181.201ZM236.339 188.224L231.066 182.365L212.904 198.711L218.176 204.57L223.449 210.428L241.611 194.082L236.339 188.224ZM218.176 204.57L213.343 210.796L240.95 232.227L245.783 226.001L250.616 219.775L223.01 198.344L218.176 204.57ZM245.783 226.001L237.905 225.766L237.662 233.878L245.541 234.114L253.419 234.349L253.661 226.236L245.783 226.001ZM245.541 234.114L241.109 227.596L213.865 246.121L218.297 252.639L222.729 259.157L249.973 240.631L245.541 234.114ZM218.297 252.639L217.117 244.846L213.121 245.452L214.302 253.244L215.482 261.037L219.478 260.432L218.297 252.639Z" fill="black" mask="url(#path-3-outside-1_647_2724)"/>
</svg>
