<svg width="582" height="556" viewBox="0 0 582 556" fill="none" xmlns="http://www.w3.org/2000/svg">
<path d="M564.539 373.809C549.776 344.275 528.882 331.66 509.627 326.946C526.24 317.249 539.097 303.486 546.791 286.4C556.34 265.196 556.494 247.237 553.328 233.4C561.006 218.758 563.034 201.694 558.842 185.708C557.773 181.629 556.39 177.801 554.73 174.181C555.22 173.147 555.682 172.128 556.12 171.063C569.005 139.629 568.112 113.229 553.47 91.407C540.92 72.7054 519.953 62.2091 497.373 62.2091C497.371 62.2091 497.365 62.2091 497.362 62.2091C483.922 62.2091 465.088 64.7395 448.054 68.2412C442.571 65.4364 436.678 62.9865 430.443 61.5623C423.884 60.0619 415.093 58.2044 405.272 58.2044C395.758 58.2044 382.309 59.8137 368.711 67.0761C365.293 66.2464 361.726 65.567 358.021 65.1315C337.02 62.6577 320.501 64.4804 306.585 70.7346C296.721 66.9585 284.857 64.439 270.65 64.439C266.619 64.439 262.414 64.6372 258.15 65.04C248.625 65.9372 239.483 68.9424 231.304 73.7288C226.766 71.5229 221.98 69.6675 216.971 68.2042C215.438 62.612 213.33 57.0524 210.482 51.58C196.928 25.5441 171.931 10 143.615 10C129.427 10 116.642 13.9394 105.447 20.0281C102.784 19.7798 100.053 19.6492 97.2657 19.6492C88.3025 19.6492 79.2086 21.0625 70.2389 23.852C47.4934 30.9207 29.3296 46.4952 19.0925 67.7076C2.94963 101.156 11.2966 138.422 21.1395 163.79C36.0847 202.31 57.981 219.006 77.3402 225.79C73.17 249.458 74.6704 265.351 80.4891 280.438C91.1683 308.135 117.751 328.618 159.498 341.318C164.609 342.873 169.84 343.746 175.079 344.021C166.321 379.27 161.04 406.393 159.067 426.244C156.515 451.966 164.183 476.519 180.659 494.714C197.329 513.121 221.714 523.87 247.565 523.87C247.567 523.87 247.569 523.87 247.571 523.87C259.99 523.87 271.695 520.956 282.091 516.386C292.069 521.322 304.665 524.382 320.527 524.382C322.92 524.382 325.455 524.179 328.044 524.099C329.161 524.064 330.298 523.953 331.426 523.942L331.766 523.912C333.536 523.992 334.988 524.029 337.166 524.029V524.02C352.41 524.02 366.575 519.578 378.611 511.42C382.254 515.612 386.292 519.737 391.074 523.831C401.809 533.023 418.754 545.244 442.444 545.244C463.742 545.244 483.785 534.926 496.093 517.686C497.045 516.357 498.005 514.883 498.974 513.269C512.7 501.101 526.571 486.783 527.434 485.89C538.18 474.777 546.462 465.165 552.76 456.505C578.78 420.726 573.524 391.785 564.539 373.809Z" fill="white" stroke="black" stroke-width="20" stroke-miterlimit="10"/>
<path d="M416.273 451.621C416.273 451.621 436.535 465.449 439.749 462.556C442.966 459.661 438.463 431.494 442.323 409.88C446.181 388.266 451.972 382.476 453.258 388.91C454.545 395.341 460.333 404.99 471.909 401.773C483.488 398.556 492.812 391.643 479.628 409.09C466.443 426.536 423.408 455.16 426.27 461.27C429.133 467.379 445.216 480.567 446.822 478.315C448.433 476.063 445.223 472.846 451.168 469.31C457.114 465.773 525.616 403.381 519.182 390.516C512.75 377.65 508.249 369.61 474.48 380.546C474.48 380.546 474.416 380.935 472.229 372.506C469.977 363.825 454.5 358.007 442.642 362.189C430.782 366.371 420.772 382.478 417.876 401.129C414.986 419.78 416.273 451.621 416.273 451.621Z" fill="#F93B21"/>
<path d="M66.1441 124.525C74.3395 145.646 82.5348 151.319 87.2619 151.949C91.989 152.58 111.217 153.21 113.74 148.168C116.262 143.126 158.593 84.5701 145.26 58.9623C133.281 35.9502 105.229 75.0378 103.653 79.7648C103.653 79.7648 97.9773 56.7552 74.6523 64.0047C51.3273 71.2542 57.9487 103.405 66.1441 124.525Z" fill="#F93B21"/>
<path d="M204.189 199.982C204.189 199.982 190.428 207.309 175.13 223.242L197.167 135.17C190.585 116.396 159.872 123.548 159.872 123.548C130.036 203.555 119.505 242.44 124.332 254.958C129.158 267.476 162.943 277.753 162.943 277.753L208.133 224.118C208.138 224.118 217.791 207.136 204.189 199.982Z" fill="#F93B21"/>
<path d="M290.383 141.21C290.383 141.21 289.305 140.482 288.022 140.491C288.305 134.406 286.016 120.157 257.66 122.832C257.66 122.832 236.593 140.727 226.284 199.747C215.976 258.767 243.221 274.732 257.165 276.667C271.11 278.602 300.245 268.443 311.002 212.809C311.002 212.809 318.174 165.158 307.866 153.79C300.274 145.42 290.383 141.21 290.383 141.21ZM259.005 257.801C259.005 257.801 254.972 225.872 276.488 163.949C276.488 163.949 279.888 155.663 283.76 148.963C283.685 151.027 283.776 153.558 284.107 156.691C286.35 177.98 280.97 242.804 259.005 257.801Z" fill="#F93B21"/>
<path d="M425.974 117.519C410.178 113.908 405.969 115.494 399.606 129.93C393.244 144.365 370.03 205.124 370.03 205.124L372.663 136.05C372.663 136.05 371.348 124.328 357.745 122.729C344.143 121.128 339.977 123.058 339.977 123.058C339.977 123.058 334.93 204.16 333.614 220.287C332.299 236.411 331.421 259.277 343.268 267.46C355.114 275.641 367.619 280.697 370.252 271.312C372.885 261.924 430.8 128.349 430.8 128.349C430.8 128.349 435.31 119.653 425.974 117.519Z" fill="#F93B21"/>
<path d="M514.543 139.654C514.543 139.654 523.092 118.801 516.317 118.803C498.637 118.805 452.437 130.371 452.437 130.371C452.437 130.371 434.008 183.679 430.279 200.652C426.55 217.625 412.948 256.594 428.964 267.83C429.673 268.327 430.356 268.753 431.043 269.189L431.03 269.2C446.514 281.455 495.951 279.466 505.747 257.712C515.544 235.958 495.436 240.098 495.436 240.098C493.429 254.094 470.457 253.14 459.123 251.792C460.709 243.128 462.841 232.336 465.565 220.185C481.925 217.355 515.539 201.904 514.521 198.023C513.203 193.002 500.261 188.699 493.241 189.894C489.646 190.507 479.893 193.628 471.233 196.526C476.817 174.319 481.013 159.331 482.78 150.569L514.543 139.654Z" fill="#F93B21"/>
<path d="M242.534 311.069C229.778 356.911 216.591 409.108 213.461 440.644C210.33 472.177 250.585 471.028 250.139 461.856C249.69 452.683 278.764 345.468 279.658 328.27C280.551 311.069 242.534 311.069 242.534 311.069Z" fill="#F93B21"/>
<path d="M387.295 311.069C379.244 306.149 367.325 303.612 312.309 317.254C312.309 317.254 299.114 321.502 292.182 319.49C292.182 319.49 304.929 334.103 312.085 335.444C316.085 336.193 320.596 336.334 327.227 335.846C322.603 358.332 321.35 362.277 315.327 391.015C309.139 420.528 300.991 460.589 304.055 465.005C307.121 469.423 317.928 467.895 328.044 467.895C336.566 467.895 341.998 471.398 346.83 444.484C352.534 412.717 363.45 353.696 366.701 331.405C379.811 330.202 391.085 329.499 393.941 328.586C398.137 327.243 395.346 315.987 387.295 311.069Z" fill="#F93B21"/>
</svg>
