<svg width="1866" height="418" viewBox="0 0 1866 418" fill="none" xmlns="http://www.w3.org/2000/svg">
<path d="M336.913 151.546C362.206 151.546 384.572 157.167 404.01 168.408C423.682 179.415 438.906 194.989 449.679 215.13C460.686 235.271 466.189 258.574 466.189 285.038C466.189 311.268 460.686 334.454 449.679 354.595C438.906 374.736 423.682 390.31 404.01 401.317C384.572 412.324 362.206 417.828 336.913 417.828C311.62 417.828 289.254 412.325 269.815 401.317C250.377 390.31 235.154 374.736 224.146 354.595C213.373 334.454 207.987 311.268 207.987 285.038C207.987 258.574 213.373 235.271 224.146 215.13C235.154 194.989 250.377 179.415 269.815 168.408C289.254 157.167 311.62 151.546 336.913 151.546ZM101.876 155.733C121.548 155.733 138.645 159.247 153.165 166.272C167.919 173.298 179.279 183.252 187.241 196.133C195.204 208.779 199.185 223.534 199.185 240.396C199.185 257.258 195.204 272.13 187.241 285.011C179.279 297.892 167.919 307.844 153.165 314.87C138.645 321.896 121.548 325.409 101.876 325.409H54.4512V413.585H0V155.733H101.876ZM543.834 413.585H489.383V155.733H543.834V413.585ZM754.888 324.355V155.733H804.771V413.585H754.536L625.611 234.424V413.585H575.024V155.733H634.394L754.888 324.355ZM1033.24 200.348H959.822V413.585H905.372V200.348H831.951V155.733H1033.24V200.348ZM1229.23 200.348H1106.62V256.556H1229.23V300.468H1106.62V369.321H1229.23V413.585H1052.17V155.733H1229.23V200.348ZM1669.44 200.348H1596.02V413.585H1541.57V200.348H1468.15V155.733H1669.44V200.348ZM1865.42 200.348H1735.82V262.556H1865.42V306.468H1735.82V369.321H1865.42V413.585H1688.37V155.733H1865.42V200.348ZM336.913 194.403C314.664 194.403 297.099 202.6 284.218 218.994C271.571 235.388 265.248 257.403 265.248 285.038C265.248 312.205 271.571 334.102 284.218 350.73C297.099 367.124 314.664 375.321 336.913 375.321C359.396 375.321 376.961 367.124 389.607 350.73C402.488 334.102 408.929 312.205 408.929 285.038C408.929 257.637 402.488 235.739 389.607 219.346C376.961 202.718 359.396 194.403 336.913 194.403ZM1442.94 327.228H1309.1V286.126H1442.94V327.228ZM54.4512 284.308H93.0938C108.785 284.308 120.846 280.561 129.277 273.066C137.943 265.572 142.274 254.681 142.274 240.396C142.274 226.344 137.942 215.688 129.277 208.428C120.846 200.933 108.785 197.187 93.0938 197.187H54.4512V284.308Z" fill="black"/>
<path d="M1789.23 81.8349V29.771H1815.62C1817.73 29.771 1820.04 30.3824 1822.53 31.6052C1825.02 32.781 1827.14 34.6152 1828.88 37.1079C1830.67 39.5535 1831.56 42.6576 1831.56 46.4202C1831.56 50.2297 1830.64 53.4749 1828.81 56.1557C1826.97 58.7894 1824.74 60.7883 1822.11 62.1522C1819.52 63.5161 1817.07 64.1981 1814.77 64.1981H1795.72V55.7324H1811.24C1812.79 55.7324 1814.46 54.9564 1816.25 53.4043C1818.09 51.8523 1819 49.5242 1819 46.4202C1819 43.222 1818.09 41.0586 1816.25 39.9298C1814.46 38.801 1812.89 38.2367 1811.52 38.2367H1800.66V81.8349H1789.23ZM1820.7 57.2844L1833.68 81.8349H1821.12L1808.42 57.2844H1820.7ZM1808.98 112.876C1801.18 112.876 1793.86 111.418 1787.04 108.502C1780.22 105.586 1774.23 101.541 1769.05 96.3677C1763.88 91.1942 1759.84 85.1977 1756.92 78.3781C1754 71.5585 1752.55 64.2451 1752.55 56.4379C1752.55 48.6306 1754 41.3172 1756.92 34.4976C1759.84 27.6781 1763.88 21.6816 1769.05 16.5081C1774.23 11.3346 1780.22 7.2899 1787.04 4.37394C1793.86 1.45798 1801.18 0 1808.98 0C1816.79 0 1824.11 1.45798 1830.92 4.37394C1837.74 7.2899 1843.74 11.3346 1848.91 16.5081C1854.09 21.6816 1858.13 27.6781 1861.05 34.4976C1863.96 41.3172 1865.42 48.6306 1865.42 56.4379C1865.42 64.2451 1863.96 71.5585 1861.05 78.3781C1858.13 85.1977 1854.09 91.1942 1848.91 96.3677C1843.74 101.541 1837.74 105.586 1830.92 108.502C1824.11 111.418 1816.79 112.876 1808.98 112.876ZM1808.98 99.3307C1816.89 99.3307 1824.08 97.4024 1830.57 93.5458C1837.06 89.6892 1842.24 84.5157 1846.09 78.0254C1849.95 71.535 1851.88 64.3392 1851.88 56.4379C1851.88 48.5366 1849.95 41.3407 1846.09 34.8504C1842.24 28.36 1837.06 23.1866 1830.57 19.33C1824.08 15.4734 1816.89 13.5451 1808.98 13.5451C1801.08 13.5451 1793.89 15.4734 1787.4 19.33C1780.91 23.1866 1775.73 28.36 1771.88 34.8504C1768.02 41.3407 1766.09 48.5366 1766.09 56.4379C1766.09 64.3392 1768.02 71.535 1771.88 78.0254C1775.73 84.5157 1780.91 89.6892 1787.4 93.5458C1793.89 97.4024 1801.08 99.3307 1808.98 99.3307Z" fill="black"/>
</svg>
