<svg width="256" height="256" viewBox="0 0 256 256" fill="none" xmlns="http://www.w3.org/2000/svg">
<mask id="mask0_523_6931" style="mask-type:alpha" maskUnits="userSpaceOnUse" x="0" y="0" width="256" height="256">
<circle cx="128" cy="128" r="128" fill="#D9D9D9"/>
</mask>
<g mask="url(#mask0_523_6931)">
<circle cx="128" cy="128" r="128" fill="#2C4FFF"/>
<path d="M219.056 103.951L196.687 161.27C194.309 167.363 189.96 172.485 184.333 175.819C168.946 184.936 149.37 178.2 142.518 162.254C130.374 166.15 117.762 168.147 105.998 166.795C98.7663 172.43 89.8333 175.777 80.9141 176.378C69.7504 177.13 58.0088 173.68 49.2536 164.64C40.4803 155.582 35.6406 141.893 36.2589 123.941L36.3951 119.976L52.6067 120.534L52.4701 124.499C51.9606 139.295 55.9688 148.258 60.9049 153.355C65.8597 158.47 72.6864 160.675 79.8239 160.194C81.4078 160.087 82.9792 159.852 84.5185 159.497C77.3065 154.939 71.2475 148.26 66.8867 139.204L66.6055 138.611C61.7553 128.248 61.2445 118.407 64.949 110.366C68.6344 102.367 75.9034 97.4878 83.7753 96.0541L84.1585 95.9873C100.397 93.2559 117.827 104.619 121.266 128.516L121.338 129.037C122.408 137.107 121.261 144.435 118.521 150.787C124.588 150.288 131.063 148.905 137.722 146.756L129.904 120.289L128.78 116.485L132.585 115.361L140.532 113.013L144.336 111.888L145.46 115.693L152.851 140.711C161.903 136.416 170.644 131.071 178.379 125.243C189.448 116.904 197.972 107.946 202.533 100.177L203.729 98.1392L221.091 98.7371L219.056 103.951ZM97.3118 114.878C93.8187 112.14 89.8371 111.439 86.6813 112.013C83.4062 112.61 80.9101 114.488 79.6821 117.154C78.4735 119.777 77.9077 124.492 81.2975 131.735L81.5294 132.224C86.0227 141.522 92.6868 146.752 100.748 149.225C104.305 144.479 106.197 138.377 105.263 131.214L105.21 130.827C104.013 122.506 100.761 117.582 97.3118 114.878ZM188.14 138.199C178.984 145.097 168.54 151.405 157.661 156.363C160.923 163.078 169.379 165.824 176.064 161.863C178.574 160.375 180.515 158.091 181.576 155.373L188.336 138.05C188.27 138.099 188.205 138.15 188.14 138.199ZM166.703 98.8001C172.902 99.769 177.142 105.579 176.173 111.778C175.204 117.977 169.393 122.216 163.195 121.248L163.194 121.247C156.996 120.278 152.756 114.468 153.725 108.27C154.694 102.071 160.505 97.8313 166.703 98.8001Z" fill="white"/>
<path d="M198.474 161.966C195.941 168.456 191.308 173.913 185.314 177.464C169.435 186.873 149.373 180.434 141.495 164.58C129.936 168.118 117.92 169.944 106.559 168.779C99.1364 174.364 90.0919 177.677 81.0489 178.287C69.412 179.07 57.0902 175.474 47.886 165.971C38.8038 156.594 33.8781 142.642 34.3282 124.731L34.3538 123.875L34.5556 117.999L54.5898 118.689L54.3875 124.565L54.3675 125.237C54.0132 139.249 57.8703 147.466 62.285 152.025C66.752 156.637 72.9274 158.697 79.5202 158.297C73.7419 153.743 68.8576 147.693 65.1696 140.034L65.1675 140.029L65.165 140.024L64.8838 139.432L64.8796 139.422C59.9371 128.861 59.2396 118.574 63.0342 109.974L63.2184 109.566C67.1944 100.936 75.0277 95.7048 83.439 94.173L83.4458 94.1719L83.4528 94.1705L83.8359 94.1036L83.8414 94.1027L83.8473 94.1018C101.311 91.1644 119.598 103.458 123.165 128.244L123.166 128.253L123.239 128.775L123.239 128.78L123.24 128.787C124.192 135.965 123.461 142.611 121.435 148.556C125.889 147.983 130.56 146.949 135.361 145.493L126.41 115.193L145.635 109.513L154.052 138.006C162.264 133.946 170.175 129.035 177.234 123.716C188.186 115.465 196.501 106.685 200.89 99.209L202.663 96.189L223.86 96.9189L198.474 161.966ZM204.808 100.09L204.188 101.145C199.456 109.208 190.721 118.344 179.536 126.771C171.7 132.674 162.848 138.087 153.676 142.439L151.656 143.397L143.05 114.265L131.162 117.777L140.091 148.004L138.316 148.577C131.543 150.762 124.923 152.18 118.684 152.694L115.51 152.955L116.771 150.03C119.371 144.004 120.473 137.029 119.45 129.301L119.377 128.78C116.065 105.784 99.5025 95.3533 84.4931 97.8712L84.4932 97.8716L84.1101 97.9385C76.783 99.2771 70.0845 103.803 66.6919 111.166L66.535 111.515C63.2968 118.853 63.7371 127.953 68.3392 137.792L68.6157 138.374C72.8295 147.126 78.6533 153.525 85.5464 157.881L89.4228 160.33L84.9543 161.361C83.3178 161.738 81.6457 161.988 79.9586 162.102C72.4136 162.61 65.0739 160.305 59.6854 154.836L59.6794 154.832L59.5374 154.686C54.1499 149.123 50.0427 139.604 50.5651 124.433L50.6357 122.38L38.2469 121.953L38.1762 124.007L38.1518 124.828C37.7199 141.998 42.4432 154.854 50.6334 163.31C58.9397 171.886 70.1011 175.191 80.7916 174.471C89.3334 173.895 97.9011 170.685 104.829 165.287L105.446 164.806L106.223 164.896C117.635 166.207 129.963 164.276 141.94 160.433L143.595 159.902L144.281 161.499C150.684 176.4 168.984 182.694 183.364 174.174C188.623 171.057 192.688 166.27 194.911 160.575L218.335 100.556L204.808 100.09ZM86.345 110.132C90.0306 109.461 94.5679 110.293 98.4977 113.373C102.404 116.436 105.856 121.842 107.109 130.555L107.111 130.568L107.164 130.955L107.165 130.961L107.166 130.967C108.165 138.633 106.136 145.233 102.284 150.372L101.478 151.448L100.193 151.053C91.622 148.424 84.538 142.832 79.8137 133.056L79.8108 133.051L79.808 133.045L79.576 132.556L79.5737 132.551L79.5716 132.546C76.0633 125.05 76.4372 119.779 77.8818 116.508L77.9514 116.354C79.4673 113.064 82.5233 110.828 86.345 110.132ZM96.1381 116.384C93.0818 113.988 89.6559 113.417 87.0299 113.895C84.3016 114.392 82.3651 115.914 81.425 117.954L81.3402 118.147C80.4705 120.201 79.9211 124.265 83.0311 130.915L83.2623 131.402C87.2757 139.701 93.0449 144.499 100.007 146.964C102.758 142.787 104.167 137.574 103.375 131.474L103.324 131.099L103.268 130.73C102.087 123.032 99.083 118.692 96.1381 116.384ZM183.363 156.068C182.147 159.184 179.923 161.803 177.045 163.509C169.379 168.051 159.687 164.9 155.947 157.199L155.091 155.436L156.874 154.623C167.621 149.725 177.945 143.49 186.995 136.672C187.085 136.604 187.078 136.608 187.189 136.525L192.581 132.449L183.363 156.068ZM184.195 143.416C176.802 148.552 168.744 153.26 160.395 157.204C163.659 161.682 169.986 163.245 175.095 160.218C177.238 158.948 178.895 156.998 179.8 154.678L184.195 143.416ZM167.342 96.968C174.4 98.255 179.183 104.945 178.068 112.074L178.011 112.412C176.724 119.469 170.034 124.252 162.905 123.137L162.489 123.072L162.473 123.062C155.579 121.754 150.884 115.283 151.793 108.314L151.841 107.975C152.974 100.733 159.762 95.7791 167.005 96.9109L167.342 96.968ZM174.29 111.483C175.083 106.408 171.678 101.647 166.654 100.731L166.414 100.69C161.259 99.8842 156.426 103.41 155.62 108.565L155.586 108.807C154.925 113.87 158.421 118.565 163.496 119.358L163.516 119.361C168.583 120.142 173.334 116.741 174.249 111.723L174.29 111.483Z" fill="black"/>
</g>
</svg>
