<svg width="3798" height="1520" viewBox="0 0 3798 1520" fill="none" xmlns="http://www.w3.org/2000/svg">
<path d="M844.532 279.485C860.215 250.149 849.233 213.938 820.002 198.605C790.77 183.272 754.359 194.624 738.675 223.96L791.604 251.722L844.532 279.485ZM16.6656 1375.23C-6.26771 1399.4 -5.42801 1437.33 18.5411 1459.95C42.5103 1482.57 80.5322 1481.32 103.466 1457.16L60.0656 1416.2L16.6656 1375.23ZM791.604 251.722L738.675 223.96C540.997 593.705 323.024 1052.44 16.6656 1375.23L60.0656 1416.2L103.466 1457.16C424.313 1119.1 651.803 639.972 844.532 279.485L791.604 251.722Z" fill="black"/>
<path d="M337.851 774.965C907.366 806.336 1295.32 625.192 1408.08 499.282C1760.16 106.146 438.09 -86.1708 423.598 190.009C412.005 410.954 834.225 529.129 834.225 529.129" stroke="black" stroke-width="120" stroke-linecap="round"/>
<path d="M746.507 1107.27C562.437 1379.34 957.87 1478.7 1127.77 1168.52C1259.9 927.298 908.067 846.106 746.507 1107.27ZM746.507 1107.27C773.332 1222.72 1284 1218.24 1507.82 993.599C1395.94 1266.27 1372.88 1395.63 1538.76 1310.19C1681.14 1236.85 1728.36 983.491 1944.04 1032.32C2110.67 1070.04 1542.98 1530.28 2259.26 1177.06" stroke="black" stroke-width="103.244" stroke-linecap="round"/>
<path d="M2128.33 806.847C2685.48 764.37 2930.42 790.634 3745.46 782.909" stroke="black" stroke-width="103.244" stroke-linecap="round"/>
<path d="M2182.63 1402.75C2163.72 1424.43 2130.12 1428.19 2107.59 1411.15C2085.06 1394.11 2082.12 1362.72 2101.04 1341.05L2141.83 1371.9L2182.63 1402.75ZM2620.22 521.11C2635.12 496.899 2667.76 487.968 2693.12 501.161C2718.49 514.354 2726.98 544.676 2712.08 568.887L2666.15 544.998L2620.22 521.11ZM2141.83 1371.9L2101.04 1341.05C2211.39 1214.58 2275.98 1115.79 2345.3 995.984C2414.59 876.238 2490.61 731.718 2620.22 521.11L2666.15 544.998L2712.08 568.887C2583.22 778.276 2510.25 917.518 2438.58 1041.38C2366.95 1165.18 2298.61 1269.85 2182.63 1402.75L2141.83 1371.9Z" fill="black"/>
<path d="M2955.96 1393.56C2937.04 1415.24 2903.44 1418.99 2880.91 1401.95C2858.38 1384.91 2855.45 1353.53 2874.36 1331.85L2915.16 1362.71L2955.96 1393.56ZM3393.54 511.914C3408.44 487.704 3441.08 478.772 3466.45 491.966C3491.82 505.159 3500.3 535.481 3485.4 559.691L3439.47 535.803L3393.54 511.914ZM2915.16 1362.71L2874.36 1331.85C2984.72 1205.38 3049.3 1106.59 3118.63 986.788C3187.91 867.042 3263.94 722.523 3393.54 511.914L3439.47 535.803L3485.4 559.691C3356.55 769.081 3283.58 908.323 3211.91 1032.18C3140.27 1155.99 3071.93 1260.65 2955.96 1393.56L2915.16 1362.71Z" fill="black"/>
<path d="M2641.37 1089.8C2806.27 1123.98 2857.44 1024.75 2729.83 1033.15C2470.87 1050.19 2363.01 1385.43 2746.53 1286.93" stroke="black" stroke-width="103.244" stroke-linecap="round"/>
<path d="M3410.2 1126.45C3574.75 1155.39 3626.66 1067.3 3499.05 1075.7C3240.09 1092.75 3129.71 1389.82 3513.8 1299.85" stroke="black" stroke-width="103.244" stroke-linecap="round"/>
<path d="M1640.56 792.892L1576.02 896.884" stroke="black" stroke-width="103.244" stroke-linecap="round"/>
</svg>
