<svg width="6604" height="1500" viewBox="0 0 6604 1500" fill="none" xmlns="http://www.w3.org/2000/svg">
<path d="M565 477.23C565 499.322 582.909 517.23 605 517.23H820C842.091 517.23 860 499.322 860 477.23V116.23C860 94.1391 877.909 76.2305 900 76.2305H1385C1407.09 76.2305 1425 94.1391 1425 116.23V477.23C1425 499.322 1442.91 517.23 1465 517.23H1680C1702.09 517.23 1720 499.322 1720 477.23V116.23C1720 94.1391 1737.91 76.2305 1760 76.2305H2245C2267.09 76.2305 2285 94.1391 2285 116.23V601.23C2285 623.322 2267.09 641.23 2245 641.23H1895C1872.91 641.23 1855 659.139 1855 681.23V874.23C1855 896.322 1872.91 914.23 1895 914.23H2245C2267.09 914.23 2285 932.139 2285 954.23V1439.23C2285 1461.32 2267.09 1479.23 2245 1479.23H1760C1737.91 1479.23 1720 1461.32 1720 1439.23V1122.23C1720 1100.14 1702.09 1082.23 1680 1082.23H1330C1307.91 1082.23 1290 1064.32 1290 1042.23V681.23C1290 659.139 1272.09 641.23 1250 641.23H1035C1012.91 641.23 995 659.139 995 681.23V1042.23C995 1064.32 977.091 1082.23 955 1082.23H470C447.909 1082.23 430 1064.32 430 1042.23V681.23C430 659.139 412.091 641.23 390 641.23H40C17.9086 641.23 0 623.322 0 601.23V116.23C0 94.1391 17.9086 76.2305 40 76.2305H525C547.091 76.2305 565 94.1391 565 116.23V477.23ZM1244 1378.23C1244 1400.32 1226.09 1418.23 1204 1418.23H1046C1023.91 1418.23 1006 1400.32 1006 1378.23V1220.23C1006 1198.14 1023.91 1180.23 1046 1180.23H1204C1226.09 1180.23 1244 1198.14 1244 1220.23V1378.23Z" fill="black"/>
<path d="M3647.17 278.865C3662.66 249.424 3651.43 213.288 3622.09 198.153C3592.76 183.018 3556.43 194.616 3540.94 224.056L3594.06 251.461L3647.17 278.865ZM2826.72 1380.18C2803.95 1404.5 2805.05 1442.42 2829.17 1464.88C2853.29 1487.34 2891.31 1485.84 2914.07 1461.52L2870.4 1420.85L2826.72 1380.18ZM3594.06 251.461L3540.94 224.056C3345.77 595.128 3130.89 1055.33 2826.72 1380.18L2870.4 1420.85L2914.07 1461.52C3232.63 1121.3 3456.88 640.646 3647.17 278.865L3594.06 251.461Z" fill="black"/>
<path d="M3143.85 777.756C3713.56 805.28 4100.28 621.52 4212.19 494.851C4561.61 99.347 3238.27 -84.037 3225.64 192.235C3215.54 413.252 3638.55 528.574 3638.55 528.574" stroke="black" stroke-width="120" stroke-linecap="round"/>
<path d="M3554.74 1107.29C3372.51 1380.6 3768.61 1477.29 3936.4 1165.97C4066.9 923.859 3714.53 845.045 3554.74 1107.29ZM3554.74 1107.29C3582.34 1222.56 4092.97 1214.63 4315.27 988.484C4205.23 1261.9 4183.04 1391.42 4348.35 1304.86C4490.22 1230.56 4535.73 976.887 4751.73 1024.26C4918.62 1060.86 4354.05 1524.91 5067.93 1166.87" stroke="black" stroke-width="103.244" stroke-linecap="round"/>
<path d="M4934.5 797.545C5491.35 751.306 5736.46 775.916 6551.43 762.687" stroke="black" stroke-width="103.244" stroke-linecap="round"/>
<path d="M4992.83 1393.08C4974.06 1414.88 4940.49 1418.87 4917.84 1401.98C4895.19 1385.09 4892.05 1353.73 4910.82 1331.92L4951.82 1362.5L4992.83 1393.08ZM5424.45 508.497C5439.18 484.186 5471.76 475.035 5497.22 488.056C5522.67 501.078 5531.36 531.342 5516.63 555.652L5470.54 532.075L5424.45 508.497ZM4951.82 1362.5L4910.82 1331.92C5020.32 1204.71 5084.23 1105.49 5152.74 985.217C5221.22 865.006 5296.27 719.976 5424.45 508.497L5470.54 532.075L5516.63 555.652C5389.19 765.907 5317.16 905.639 5246.33 1029.98C5175.53 1154.26 5107.9 1259.39 4992.83 1393.08L4951.82 1362.5Z" fill="black"/>
<path d="M5766.07 1378.66C5747.3 1400.46 5713.73 1404.45 5691.09 1387.56C5668.44 1370.67 5665.29 1339.31 5684.06 1317.5L5725.07 1348.08L5766.07 1378.66ZM6197.69 494.079C6212.43 469.768 6245.01 460.617 6270.46 473.638C6295.92 486.66 6304.61 516.924 6289.87 541.234L6243.78 517.657L6197.69 494.079ZM5725.07 1348.08L5684.06 1317.5C5793.56 1190.29 5857.48 1091.07 5925.99 970.799C5994.47 850.588 6069.51 705.558 6197.69 494.079L6243.78 517.657L6289.87 541.234C6162.43 751.49 6090.41 891.221 6019.57 1015.56C5948.78 1139.85 5881.15 1244.97 5766.07 1378.66L5725.07 1348.08Z" fill="black"/>
<path d="M5449.44 1077.03C5614.56 1110.1 5665.06 1010.52 5537.51 1019.78C5278.68 1038.57 5173.08 1374.53 5555.93 1273.45" stroke="black" stroke-width="103.244" stroke-linecap="round"/>
<path d="M6218.5 1108.48C6383.24 1136.31 6434.55 1047.88 6307 1057.14C6048.16 1075.93 5939.8 1373.74 6323.27 1281.18" stroke="black" stroke-width="103.244" stroke-linecap="round"/>
<path d="M4446.65 786.885L4382.82 891.311" stroke="black" stroke-width="103.244" stroke-linecap="round"/>
</svg>
