<svg width="193" height="164" viewBox="0 0 193 164" fill="none" xmlns="http://www.w3.org/2000/svg">
<path d="M77.7447 164V151.034H64.7837V138.061H51.8298V125.095H38.8688V112.122H25.9149V99.1564H12.9538V86.1906H0V22.692H12.9538V11.346H25.9149V0H89.3476V11.346H103.652V0H167.092V11.346H180.046V24.3191H193V86.1906H180.046V99.1564H167.092V112.122H154.131V125.095H141.177V138.061H128.216V151.034H115.262V164H77.7447Z" fill="#F2F2F2"/>
<path d="M38.1973 12.2935H77.066V23.6395H38.1973V12.2935Z" fill="#2C2C2C"/>
<path d="M115.935 12.2935H154.803V23.6395H115.935V12.2935Z" fill="#2C2C2C"/>
<path d="M25.2363 23.6396H38.1902V34.9857H25.2363V23.6396Z" fill="#2C2C2C"/>
<path d="M12.2822 34.9854H25.2361V73.8901H12.2822V34.9854Z" fill="#2C2C2C"/>
<path d="M167.765 36.6123H180.718V73.8972H167.765V36.6123Z" fill="#2C2C2C"/>
<path d="M25.2363 73.897H38.1902V86.8628H25.2363V73.897Z" fill="#2C2C2C"/>
<path d="M38.1973 86.8628H51.1511V99.8286H38.1973V86.8628Z" fill="#2C2C2C"/>
<path d="M51.1514 99.8364H64.1052V112.802H51.1514V99.8364Z" fill="#2C2C2C"/>
<path d="M64.1123 112.802H77.0661V125.768H64.1123V112.802Z" fill="#2C2C2C"/>
<path d="M77.0654 125.768H90.0193V138.734H77.0654V125.768Z" fill="#2C2C2C"/>
<path d="M90.0273 138.741H102.981V151.707H90.0273V138.741Z" fill="#2C2C2C"/>
<path d="M102.98 125.768H115.934V138.734H102.98V125.768Z" fill="#2C2C2C"/>
<path d="M115.935 112.802H128.888V125.768H115.935V112.802Z" fill="#2C2C2C"/>
<path d="M128.896 99.8364H141.849V112.802H128.896V99.8364Z" fill="#2C2C2C"/>
<path d="M141.85 86.8628H154.803V99.8286H141.85V86.8628Z" fill="#2C2C2C"/>
<path d="M154.811 73.897H167.764V86.8628H154.811V73.897Z" fill="#2C2C2C"/>
<path d="M154.811 23.6396H167.764V36.6055H154.811V23.6396Z" fill="#2C2C2C"/>
<path d="M102.98 23.6396H115.934V36.6055H102.98V23.6396Z" fill="#2C2C2C"/>
<path d="M77.0654 23.6396H90.0193V36.6055H77.0654V23.6396Z" fill="#2C2C2C"/>
<path d="M90.0273 36.6123H102.981V49.5781H90.0273V36.6123Z" fill="#2C2C2C"/>
<path d="M38.1973 12.2935H77.066V23.6395H38.1973V12.2935Z" fill="#2C2C2C"/>
<path d="M115.935 12.2935H154.803V23.6395H115.935V12.2935Z" fill="#2C2C2C"/>
<path d="M25.2363 23.6396H38.1902V34.9857H25.2363V23.6396Z" fill="#2C2C2C"/>
<path d="M12.2822 34.9854H25.2361V73.8901H12.2822V34.9854Z" fill="#2C2C2C"/>
<path d="M167.765 36.6123H180.718V73.8972H167.765V36.6123Z" fill="#2C2C2C"/>
<path d="M25.2363 73.897H38.1902V86.8628H25.2363V73.897Z" fill="#2C2C2C"/>
<path d="M38.1973 86.8628H51.1511V99.8286H38.1973V86.8628Z" fill="#2C2C2C"/>
<path d="M51.1514 99.8364H64.1052V112.802H51.1514V99.8364Z" fill="#2C2C2C"/>
<path d="M64.1123 112.802H77.0661V125.768H64.1123V112.802Z" fill="#2C2C2C"/>
<path d="M77.0654 125.768H90.0193V138.734H77.0654V125.768Z" fill="#2C2C2C"/>
<path d="M90.0273 138.741H102.981V151.707H90.0273V138.741Z" fill="#2C2C2C"/>
<path d="M102.98 125.768H115.934V138.734H102.98V125.768Z" fill="#2C2C2C"/>
<path d="M115.935 112.802H128.888V125.768H115.935V112.802Z" fill="#2C2C2C"/>
<path d="M128.896 99.8364H141.849V112.802H128.896V99.8364Z" fill="#2C2C2C"/>
<path d="M141.85 86.8628H154.803V99.8286H141.85V86.8628Z" fill="#2C2C2C"/>
<path d="M154.811 73.897H167.764V86.8628H154.811V73.897Z" fill="#2C2C2C"/>
<path d="M154.811 23.6396H167.764V36.6055H154.811V23.6396Z" fill="#2C2C2C"/>
<path d="M102.98 23.6396H115.934V36.6055H102.98V23.6396Z" fill="#2C2C2C"/>
<path d="M77.0654 23.6396H90.0193V36.6055H77.0654V23.6396Z" fill="#2C2C2C"/>
<path d="M90.0273 36.6123H102.981V49.5781H90.0273V36.6123Z" fill="#2C2C2C"/>
<path d="M77.0658 23.6396H38.197V34.9857H25.2432V73.8904H38.197V86.8562H51.1509V99.822H64.1047V112.788H77.0585V125.754H90.0124V138.72H102.966V125.754H115.92V112.788H128.874V99.822H141.828V86.8562H154.782V73.8904H167.735V36.6055H154.782V23.6396H115.913V36.6055H102.959V49.5713H90.0052V36.6055H77.0513V23.6396H77.0658Z" fill="#FF7262"/>
<path d="M38.1973 36.6127H64.1122V49.5785H51.1583V61.7344H38.2045V36.6055L38.1973 36.6127Z" fill="#F2F2F2"/>
</svg>
