<svg width="484" height="386" viewBox="0 0 484 386" fill="none" xmlns="http://www.w3.org/2000/svg">
<path d="M209.128 10.2236C213.425 9.30121 217.821 11.2924 219.961 15.1309L276.927 117.304L310.571 83.3623C313.494 80.414 317.934 79.5781 321.729 81.2617C325.523 82.9453 327.883 86.7981 327.658 90.9434L325.612 128.657L462.167 113.293C466.61 112.793 470.846 115.304 472.54 119.442C474.234 123.581 472.975 128.34 469.456 131.1L349.946 224.817L450.094 330.491C453.298 333.872 453.743 339.018 451.168 342.899C448.593 346.781 443.679 348.369 439.318 346.731L286.676 289.377L212.575 371.867C209.915 374.828 205.752 375.93 201.976 374.672C198.199 373.414 195.529 370.037 195.176 366.072L185.97 262.769L150.933 261.589C147.389 261.469 144.174 259.483 142.481 256.367C140.789 253.252 140.874 249.474 142.702 246.437L156.595 223.36L16.2119 165.867C11.8784 164.092 9.35706 159.548 10.1445 154.932C10.932 150.315 14.8173 146.864 19.4941 146.626L191.069 137.906L201.264 19.1455L201.307 18.7373C201.84 14.543 204.965 11.1174 209.128 10.2236Z" fill="white" stroke="black" stroke-width="20" stroke-linejoin="round"/>
<path d="M262.091 140.801L271.416 157.524L284.896 143.925L301.243 127.432L300.608 139.137L299.687 156.129L316.597 154.227L414.466 143.214L326.248 212.395L313.804 222.152L324.682 233.631L389.384 301.903L288.864 264.135L279.659 260.676L273.087 267.992L216.541 330.938L209.489 251.795L208.359 239.109L195.632 238.681L176.245 238.027L183.515 225.955L192.178 211.566L176.636 205.201L85.123 167.722L201.019 161.832L213.561 161.195L214.635 148.683L221.552 68.0908L262.091 140.801Z" stroke="#FFDC54" stroke-width="28.8"/>
<path d="M268.38 137.294L273.042 145.656L279.782 138.856L309.457 108.917L307.798 139.527L307.337 148.023L315.792 147.071L438.875 133.223L330.691 218.06L324.469 222.939L329.908 228.679L416.107 319.635L286.347 270.872L281.744 269.143L278.458 272.8L210.839 348.063L202.318 252.434L201.753 246.091L195.389 245.877L163.757 244.811L177.347 222.241L181.678 215.047L173.907 211.864L52.5615 162.167L200.653 154.642L206.924 154.323L207.461 148.066L216.389 44.0449L268.38 137.294Z" stroke="#F33A4A" stroke-width="14.4"/>
<mask id="path-4-outside-1_659_346" maskUnits="userSpaceOnUse" x="155.582" y="160.96" width="197.761" height="77.023" fill="black">
<rect fill="white" x="155.582" y="160.96" width="197.761" height="77.023"/>
<path d="M165.739 232.42C163.519 232.397 161.451 232.196 159.535 231.816C162.523 221.346 164.911 210.81 166.7 200.208C168.55 189.547 170.31 178.824 171.981 168.041C175.108 167.413 178.354 166.876 181.719 166.431C185.084 165.925 188.567 165.691 192.166 165.728C194.146 165.749 196.242 166.13 198.455 166.873C200.668 167.556 202.515 168.805 203.997 170.62C205.539 172.376 206.293 174.874 206.26 178.114C206.229 181.114 205.57 183.867 204.285 186.374C202.999 188.881 201.387 191.024 199.448 192.805C197.51 194.585 195.517 195.854 193.469 196.613C194.304 197.042 195.287 197.802 196.415 198.894C197.544 199.985 198.519 201.435 199.341 203.244C200.162 205.053 200.56 207.247 200.533 209.827C200.496 213.426 199.382 216.685 197.192 219.603C195.063 222.461 192.218 224.832 188.659 226.715C185.219 228.6 181.514 230.032 177.544 231.011C173.574 231.99 169.639 232.46 165.739 232.42ZM182.205 189.117C184.069 188.776 185.844 188.314 187.53 187.732C189.216 187.149 190.573 186.473 191.601 185.703C192.689 184.935 193.237 184.1 193.247 183.2C193.258 182.06 192.818 181.156 191.924 180.487C191.031 179.817 189.956 179.326 188.699 179.013C187.443 178.7 186.274 178.538 185.194 178.527L184.294 178.518C183.85 180.913 183.438 183.009 183.06 184.806C182.682 186.542 182.397 187.979 182.205 189.117ZM177.355 214.358C178.556 214.251 179.878 214.054 181.321 213.769C182.764 213.484 184.149 213.048 185.475 212.462C186.802 211.815 187.89 210.987 188.741 209.975C189.652 208.905 190.115 207.619 190.131 206.119C190.145 204.68 189.677 203.535 188.726 202.685C187.775 201.835 186.611 201.223 185.235 200.849C183.919 200.415 182.661 200.192 181.461 200.18L180.741 200.173C180.441 200.169 180.201 200.197 180.02 200.255C179.638 202.471 179.194 204.807 178.688 207.262C178.183 209.717 177.739 212.082 177.355 214.358ZM214.402 232.921C210.442 232.88 207.218 231.317 204.73 228.231C202.242 225.145 201.029 220.512 201.093 214.333C201.128 210.913 201.585 207.317 202.464 203.546C203.343 199.775 204.551 196.067 206.089 192.423C207.626 188.779 209.401 185.407 211.413 182.307C214.645 177.3 218.347 173.228 222.519 170.091C226.692 166.954 231.058 165.408 235.618 165.455C239.217 165.492 241.968 166.451 243.868 168.33C245.83 170.151 247.186 172.505 247.936 175.393C248.687 178.22 249.047 181.164 249.015 184.224C248.942 191.364 247.763 198.012 245.48 204.169C243.257 210.266 240.384 215.427 236.86 219.651C233.335 223.995 229.581 227.316 225.597 229.616C221.674 231.855 217.942 232.957 214.402 232.921ZM219.415 218.121C222.115 218.149 224.494 217.274 226.552 215.495C228.671 213.716 230.464 211.455 231.932 208.71C233.401 205.905 234.511 202.976 235.263 199.923C236.014 196.871 236.403 194.115 236.428 191.655C236.438 190.695 236.358 189.674 236.19 188.592C236.021 187.451 235.641 186.457 235.05 185.611C234.459 184.764 233.533 184.335 232.273 184.322C229.513 184.293 227.013 185.288 224.772 187.305C222.532 189.262 220.646 191.763 219.115 194.807C217.583 197.911 216.441 200.96 215.69 203.952C214.94 206.945 214.551 209.671 214.526 212.131C214.513 213.391 214.95 214.715 215.835 216.104C216.722 217.434 217.915 218.106 219.415 218.121ZM258.785 233.377C254.825 233.336 251.601 231.773 249.112 228.687C246.624 225.602 245.412 220.969 245.475 214.789C245.51 211.37 245.967 207.774 246.846 204.003C247.725 200.232 248.933 196.524 250.471 192.88C252.009 189.235 253.783 185.863 255.795 182.764C259.027 177.757 262.729 173.685 266.902 170.547C271.074 167.41 275.44 165.865 280 165.912C283.6 165.949 286.35 166.907 288.251 168.787C290.212 170.607 291.568 172.961 292.318 175.849C293.069 178.677 293.429 181.621 293.398 184.681C293.324 191.82 292.146 198.469 289.862 204.625C287.639 210.723 284.766 215.884 281.242 220.108C277.718 224.452 273.963 227.773 269.979 230.072C266.056 232.312 262.325 233.414 258.785 233.377ZM263.797 218.578C266.497 218.606 268.876 217.73 270.935 215.951C273.053 214.173 274.846 211.911 276.315 209.166C277.784 206.361 278.894 203.433 279.645 200.38C280.397 197.328 280.785 194.572 280.81 192.112C280.82 191.152 280.741 190.131 280.572 189.049C280.404 187.907 280.024 186.913 279.433 186.067C278.841 185.221 277.916 184.792 276.656 184.779C273.896 184.75 271.395 185.744 269.155 187.762C266.914 189.719 265.028 192.219 263.497 195.264C261.965 198.368 260.824 201.417 260.073 204.409C259.322 207.401 258.934 210.128 258.909 212.587C258.896 213.847 259.332 215.172 260.218 216.561C261.104 217.89 262.297 218.563 263.797 218.578ZM284.187 232.739C286.91 224.726 289.51 216.923 291.989 209.328C293.041 206.218 294.125 202.899 295.241 199.371C296.358 195.842 297.474 192.313 298.59 188.784C299.707 185.196 300.763 181.756 301.757 178.466C302.751 175.177 303.591 172.245 304.277 169.672C307.577 169.706 310.699 169.558 313.642 169.228C315.144 169.064 316.676 168.899 318.238 168.736C319.859 168.572 321.511 168.439 323.192 168.336L322.607 172.741C322.478 173.579 322.349 174.448 322.22 175.347C322.091 176.186 321.962 177.054 321.833 177.953C321.704 178.852 321.544 179.78 321.354 180.738C321.165 181.636 321.006 182.565 320.876 183.523C320.617 185.381 320.23 187.987 319.715 191.342C319.201 194.637 318.594 198.231 317.894 202.124L319.064 202.136C320.851 197.594 322.33 193.829 323.501 190.841C324.672 187.793 325.628 185.312 326.367 183.4C327.416 180.591 328.555 177.752 329.785 174.885C331.015 172.017 332.027 169.807 332.823 168.256C334.265 168.15 335.976 167.988 337.959 167.768C340.002 167.489 342.045 167.18 344.089 166.841C346.192 166.503 347.995 166.222 349.498 165.997C348.606 171.028 347.773 176.12 347 181.272C346.288 186.365 345.638 191.249 345.049 195.923C344.522 200.538 344.059 204.703 343.661 208.419C343.262 212.135 342.895 215.822 342.557 219.478C342.22 223.075 341.883 226.642 341.547 230.179L325.859 232.807C325.86 232.687 325.964 231.338 326.171 228.76C326.377 226.182 326.71 222.976 327.17 219.14C327.629 215.305 328.086 211.679 328.542 208.264C328.997 204.788 329.447 201.943 329.889 199.727L329.079 199.719C327.533 204.263 325.651 209.224 323.436 214.601C321.281 219.98 319.149 225.928 317.042 232.447C314.942 232.485 313.141 232.556 311.64 232.661C310.139 232.706 308.398 232.778 306.417 232.877L309.641 199.519L308.291 199.505C308.224 200.164 307.941 201.451 307.441 203.366C306.942 205.221 306.349 207.375 305.664 209.828C304.98 212.221 304.265 214.614 303.52 217.007C300.723 226.398 299.232 231.363 299.047 231.901L284.187 232.739Z"/>
</mask>
<path d="M165.739 232.42C163.519 232.397 161.451 232.196 159.535 231.816C162.523 221.346 164.911 210.81 166.7 200.208C168.55 189.547 170.31 178.824 171.981 168.041C175.108 167.413 178.354 166.876 181.719 166.431C185.084 165.925 188.567 165.691 192.166 165.728C194.146 165.749 196.242 166.13 198.455 166.873C200.668 167.556 202.515 168.805 203.997 170.62C205.539 172.376 206.293 174.874 206.26 178.114C206.229 181.114 205.57 183.867 204.285 186.374C202.999 188.881 201.387 191.024 199.448 192.805C197.51 194.585 195.517 195.854 193.469 196.613C194.304 197.042 195.287 197.802 196.415 198.894C197.544 199.985 198.519 201.435 199.341 203.244C200.162 205.053 200.56 207.247 200.533 209.827C200.496 213.426 199.382 216.685 197.192 219.603C195.063 222.461 192.218 224.832 188.659 226.715C185.219 228.6 181.514 230.032 177.544 231.011C173.574 231.99 169.639 232.46 165.739 232.42ZM182.205 189.117C184.069 188.776 185.844 188.314 187.53 187.732C189.216 187.149 190.573 186.473 191.601 185.703C192.689 184.935 193.237 184.1 193.247 183.2C193.258 182.06 192.818 181.156 191.924 180.487C191.031 179.817 189.956 179.326 188.699 179.013C187.443 178.7 186.274 178.538 185.194 178.527L184.294 178.518C183.85 180.913 183.438 183.009 183.06 184.806C182.682 186.542 182.397 187.979 182.205 189.117ZM177.355 214.358C178.556 214.251 179.878 214.054 181.321 213.769C182.764 213.484 184.149 213.048 185.475 212.462C186.802 211.815 187.89 210.987 188.741 209.975C189.652 208.905 190.115 207.619 190.131 206.119C190.145 204.68 189.677 203.535 188.726 202.685C187.775 201.835 186.611 201.223 185.235 200.849C183.919 200.415 182.661 200.192 181.461 200.18L180.741 200.173C180.441 200.169 180.201 200.197 180.02 200.255C179.638 202.471 179.194 204.807 178.688 207.262C178.183 209.717 177.739 212.082 177.355 214.358ZM214.402 232.921C210.442 232.88 207.218 231.317 204.73 228.231C202.242 225.145 201.029 220.512 201.093 214.333C201.128 210.913 201.585 207.317 202.464 203.546C203.343 199.775 204.551 196.067 206.089 192.423C207.626 188.779 209.401 185.407 211.413 182.307C214.645 177.3 218.347 173.228 222.519 170.091C226.692 166.954 231.058 165.408 235.618 165.455C239.217 165.492 241.968 166.451 243.868 168.33C245.83 170.151 247.186 172.505 247.936 175.393C248.687 178.22 249.047 181.164 249.015 184.224C248.942 191.364 247.763 198.012 245.48 204.169C243.257 210.266 240.384 215.427 236.86 219.651C233.335 223.995 229.581 227.316 225.597 229.616C221.674 231.855 217.942 232.957 214.402 232.921ZM219.415 218.121C222.115 218.149 224.494 217.274 226.552 215.495C228.671 213.716 230.464 211.455 231.932 208.71C233.401 205.905 234.511 202.976 235.263 199.923C236.014 196.871 236.403 194.115 236.428 191.655C236.438 190.695 236.358 189.674 236.19 188.592C236.021 187.451 235.641 186.457 235.05 185.611C234.459 184.764 233.533 184.335 232.273 184.322C229.513 184.293 227.013 185.288 224.772 187.305C222.532 189.262 220.646 191.763 219.115 194.807C217.583 197.911 216.441 200.96 215.69 203.952C214.94 206.945 214.551 209.671 214.526 212.131C214.513 213.391 214.95 214.715 215.835 216.104C216.722 217.434 217.915 218.106 219.415 218.121ZM258.785 233.377C254.825 233.336 251.601 231.773 249.112 228.687C246.624 225.602 245.412 220.969 245.475 214.789C245.51 211.37 245.967 207.774 246.846 204.003C247.725 200.232 248.933 196.524 250.471 192.88C252.009 189.235 253.783 185.863 255.795 182.764C259.027 177.757 262.729 173.685 266.902 170.547C271.074 167.41 275.44 165.865 280 165.912C283.6 165.949 286.35 166.907 288.251 168.787C290.212 170.607 291.568 172.961 292.318 175.849C293.069 178.677 293.429 181.621 293.398 184.681C293.324 191.82 292.146 198.469 289.862 204.625C287.639 210.723 284.766 215.884 281.242 220.108C277.718 224.452 273.963 227.773 269.979 230.072C266.056 232.312 262.325 233.414 258.785 233.377ZM263.797 218.578C266.497 218.606 268.876 217.73 270.935 215.951C273.053 214.173 274.846 211.911 276.315 209.166C277.784 206.361 278.894 203.433 279.645 200.38C280.397 197.328 280.785 194.572 280.81 192.112C280.82 191.152 280.741 190.131 280.572 189.049C280.404 187.907 280.024 186.913 279.433 186.067C278.841 185.221 277.916 184.792 276.656 184.779C273.896 184.75 271.395 185.744 269.155 187.762C266.914 189.719 265.028 192.219 263.497 195.264C261.965 198.368 260.824 201.417 260.073 204.409C259.322 207.401 258.934 210.128 258.909 212.587C258.896 213.847 259.332 215.172 260.218 216.561C261.104 217.89 262.297 218.563 263.797 218.578ZM284.187 232.739C286.91 224.726 289.51 216.923 291.989 209.328C293.041 206.218 294.125 202.899 295.241 199.371C296.358 195.842 297.474 192.313 298.59 188.784C299.707 185.196 300.763 181.756 301.757 178.466C302.751 175.177 303.591 172.245 304.277 169.672C307.577 169.706 310.699 169.558 313.642 169.228C315.144 169.064 316.676 168.899 318.238 168.736C319.859 168.572 321.511 168.439 323.192 168.336L322.607 172.741C322.478 173.579 322.349 174.448 322.22 175.347C322.091 176.186 321.962 177.054 321.833 177.953C321.704 178.852 321.544 179.78 321.354 180.738C321.165 181.636 321.006 182.565 320.876 183.523C320.617 185.381 320.23 187.987 319.715 191.342C319.201 194.637 318.594 198.231 317.894 202.124L319.064 202.136C320.851 197.594 322.33 193.829 323.501 190.841C324.672 187.793 325.628 185.312 326.367 183.4C327.416 180.591 328.555 177.752 329.785 174.885C331.015 172.017 332.027 169.807 332.823 168.256C334.265 168.15 335.976 167.988 337.959 167.768C340.002 167.489 342.045 167.18 344.089 166.841C346.192 166.503 347.995 166.222 349.498 165.997C348.606 171.028 347.773 176.12 347 181.272C346.288 186.365 345.638 191.249 345.049 195.923C344.522 200.538 344.059 204.703 343.661 208.419C343.262 212.135 342.895 215.822 342.557 219.478C342.22 223.075 341.883 226.642 341.547 230.179L325.859 232.807C325.86 232.687 325.964 231.338 326.171 228.76C326.377 226.182 326.71 222.976 327.17 219.14C327.629 215.305 328.086 211.679 328.542 208.264C328.997 204.788 329.447 201.943 329.889 199.727L329.079 199.719C327.533 204.263 325.651 209.224 323.436 214.601C321.281 219.98 319.149 225.928 317.042 232.447C314.942 232.485 313.141 232.556 311.64 232.661C310.139 232.706 308.398 232.778 306.417 232.877L309.641 199.519L308.291 199.505C308.224 200.164 307.941 201.451 307.441 203.366C306.942 205.221 306.349 207.375 305.664 209.828C304.98 212.221 304.265 214.614 303.52 217.007C300.723 226.398 299.232 231.363 299.047 231.901L284.187 232.739Z" fill="black"/>
<path d="M159.535 231.816L156.65 230.993C156.42 231.799 156.538 232.665 156.975 233.38C157.412 234.096 158.129 234.596 158.951 234.759L159.535 231.816ZM166.7 200.208L163.744 199.695L163.742 199.709L166.7 200.208ZM171.981 168.041L171.391 165.099C170.157 165.347 169.21 166.338 169.017 167.581L171.981 168.041ZM181.719 166.431L182.112 169.405C182.13 169.403 182.147 169.4 182.164 169.398L181.719 166.431ZM198.455 166.873L197.5 169.717C197.523 169.725 197.547 169.732 197.57 169.74L198.455 166.873ZM203.997 170.62L201.672 172.517C201.695 172.545 201.719 172.573 201.742 172.6L203.997 170.62ZM193.469 196.613L192.426 193.8C191.311 194.214 190.545 195.247 190.474 196.435C190.403 197.622 191.041 198.74 192.099 199.283L193.469 196.613ZM196.415 198.894L198.501 196.737V196.737L196.415 198.894ZM197.192 219.603L194.793 217.802L194.787 217.81L197.192 219.603ZM188.659 226.715L187.256 224.064C187.243 224.071 187.23 224.077 187.217 224.084L188.659 226.715ZM177.544 231.011L178.262 233.924V233.924L177.544 231.011ZM182.205 189.117L179.247 188.619C179.084 189.583 179.402 190.566 180.099 191.253C180.795 191.94 181.783 192.244 182.745 192.068L182.205 189.117ZM187.53 187.732L186.55 184.896L186.55 184.896L187.53 187.732ZM191.601 185.703L189.869 183.253C189.847 183.269 189.825 183.285 189.803 183.302L191.601 185.703ZM191.924 180.487L193.723 178.086L193.723 178.086L191.924 180.487ZM188.699 179.013L187.975 181.924L187.975 181.924L188.699 179.013ZM184.294 178.518L184.325 175.518C182.868 175.503 181.611 176.538 181.345 177.97L184.294 178.518ZM183.06 184.806L185.991 185.444C185.992 185.437 185.994 185.431 185.995 185.424L183.06 184.806ZM177.355 214.358L174.397 213.86C174.242 214.777 174.522 215.714 175.153 216.396C175.785 217.078 176.697 217.429 177.623 217.346L177.355 214.358ZM181.321 213.769L180.74 210.826L180.74 210.826L181.321 213.769ZM185.475 212.462L186.688 215.206C186.722 215.191 186.756 215.175 186.789 215.159L185.475 212.462ZM188.741 209.975L186.456 208.031C186.452 208.036 186.449 208.04 186.445 208.044L188.741 209.975ZM185.235 200.849L184.296 203.698C184.346 203.715 184.397 203.73 184.448 203.744L185.235 200.849ZM180.02 200.255L179.101 197.399C178.039 197.741 177.254 198.645 177.064 199.744L180.02 200.255ZM178.688 207.262L181.627 207.867V207.867L178.688 207.262ZM165.739 232.42L165.77 229.42C163.711 229.399 161.829 229.212 160.118 228.873L159.535 231.816L158.951 234.759C161.072 235.179 163.327 235.395 165.708 235.42L165.739 232.42ZM159.535 231.816L162.419 232.639C165.437 222.064 167.851 211.42 169.658 200.707L166.7 200.208L163.742 199.709C161.972 210.2 159.608 220.628 156.65 230.993L159.535 231.816ZM166.7 200.208L169.656 200.721C171.509 190.041 173.272 179.301 174.946 168.5L171.981 168.041L169.017 167.581C167.349 178.347 165.591 189.052 163.744 199.695L166.7 200.208ZM171.981 168.041L172.572 170.982C175.629 170.368 178.809 169.842 182.112 169.405L181.719 166.431L181.325 163.457C177.898 163.91 174.587 164.458 171.391 165.099L171.981 168.041ZM181.719 166.431L182.164 169.398C185.363 168.917 188.686 168.693 192.135 168.728L192.166 165.728L192.197 162.728C188.447 162.69 184.805 162.934 181.273 163.464L181.719 166.431ZM192.166 165.728L192.135 168.728C193.751 168.745 195.534 169.057 197.5 169.717L198.455 166.873L199.41 164.029C196.951 163.204 194.542 162.753 192.197 162.728L192.166 165.728ZM198.455 166.873L197.57 169.74C199.212 170.246 200.56 171.154 201.672 172.517L203.997 170.62L206.321 168.723C204.47 166.456 202.124 164.866 199.339 164.006L198.455 166.873ZM203.997 170.62L201.742 172.6C202.636 173.617 203.288 175.296 203.26 178.083L206.26 178.114L209.259 178.145C209.297 174.452 208.441 171.135 206.251 168.641L203.997 170.62ZM206.26 178.114L203.26 178.083C203.233 180.648 202.675 182.939 201.615 185.005L204.285 186.374L206.954 187.743C208.466 184.795 209.224 181.579 209.259 178.145L206.26 178.114ZM204.285 186.374L201.615 185.005C200.48 187.218 199.078 189.071 197.419 190.595L199.448 192.805L201.477 195.014C203.695 192.978 205.518 190.543 206.954 187.743L204.285 186.374ZM199.448 192.805L197.419 190.595C195.71 192.165 194.043 193.201 192.426 193.8L193.469 196.613L194.511 199.426C196.991 198.507 199.31 197.005 201.477 195.014L199.448 192.805ZM193.469 196.613L192.099 199.283C192.555 199.516 193.291 200.046 194.33 201.05L196.415 198.894L198.501 196.737C197.282 195.558 196.054 194.568 194.838 193.944L193.469 196.613ZM196.415 198.894L194.33 201.05C195.126 201.821 195.904 202.932 196.609 204.485L199.341 203.244L202.072 202.003C201.135 199.939 199.962 198.15 198.501 196.737L196.415 198.894ZM199.341 203.244L196.609 204.485C197.204 205.794 197.557 207.528 197.533 209.796L200.533 209.827L203.533 209.858C203.563 206.965 203.121 204.312 202.072 202.003L199.341 203.244ZM200.533 209.827L197.533 209.796C197.503 212.747 196.605 215.388 194.793 217.802L197.192 219.603L199.592 221.404C202.16 217.983 203.489 214.105 203.533 209.858L200.533 209.827ZM197.192 219.603L194.787 217.81C192.956 220.267 190.473 222.361 187.256 224.064L188.659 226.715L190.062 229.367C193.964 227.302 197.17 224.655 199.598 221.395L197.192 219.603ZM188.659 226.715L187.217 224.084C184.015 225.839 180.554 227.179 176.826 228.099L177.544 231.011L178.262 233.924C182.474 232.885 186.423 231.361 190.1 229.346L188.659 226.715ZM177.544 231.011L176.826 228.099C173.088 229.02 169.405 229.457 165.77 229.42L165.739 232.42L165.708 235.42C169.872 235.463 174.059 234.961 178.262 233.924L177.544 231.011ZM182.205 189.117L182.745 192.068C184.749 191.702 186.671 191.202 188.51 190.567L187.53 187.732L186.55 184.896C185.016 185.426 183.389 185.851 181.665 186.166L182.205 189.117ZM187.53 187.732L188.51 190.567C190.384 189.919 192.046 189.117 193.399 188.105L191.601 185.703L189.803 183.302C189.099 183.829 188.048 184.379 186.55 184.896L187.53 187.732ZM191.601 185.703L193.332 188.153C194.81 187.109 196.223 185.494 196.246 183.231L193.247 183.2L190.247 183.169C190.248 183.089 190.261 183.011 190.283 182.944C190.303 182.88 190.324 182.849 190.322 182.853C190.309 182.871 190.204 183.017 189.869 183.253L191.601 185.703ZM193.247 183.2L196.246 183.231C196.268 181.16 195.4 179.342 193.723 178.086L191.924 180.487L190.126 182.887C190.183 182.931 190.211 182.96 190.221 182.972C190.23 182.983 190.23 182.985 190.228 182.981C190.226 182.977 190.23 182.982 190.235 183.006C190.24 183.03 190.248 183.082 190.247 183.169L193.247 183.2ZM191.924 180.487L193.723 178.086C192.463 177.141 191.008 176.496 189.424 176.102L188.699 179.013L187.975 181.924C188.905 182.156 189.6 182.494 190.126 182.887L191.924 180.487ZM188.699 179.013L189.424 176.102C187.984 175.743 186.58 175.541 185.225 175.527L185.194 178.527L185.163 181.527C185.968 181.535 186.901 181.657 187.975 181.924L188.699 179.013ZM185.194 178.527L185.225 175.527L184.325 175.518L184.294 178.518L184.263 181.518L185.163 181.527L185.194 178.527ZM184.294 178.518L181.345 177.97C180.903 180.349 180.496 182.421 180.124 184.187L183.06 184.806L185.995 185.424C186.38 183.598 186.796 181.478 187.244 179.065L184.294 178.518ZM183.06 184.806L180.128 184.168C179.745 185.928 179.449 187.416 179.247 188.619L182.205 189.117L185.163 189.615C185.344 188.542 185.618 187.155 185.991 185.444L183.06 184.806ZM177.355 214.358L177.623 217.346C178.949 217.228 180.378 217.014 181.903 216.712L181.321 213.769L180.74 210.826C179.379 211.095 178.163 211.274 177.087 211.37L177.355 214.358ZM181.321 213.769L181.903 216.712C183.56 216.385 185.157 215.883 186.688 215.206L185.475 212.462L184.262 209.718C183.141 210.214 181.969 210.583 180.74 210.826L181.321 213.769ZM185.475 212.462L186.789 215.159C188.449 214.35 189.886 213.274 191.037 211.906L188.741 209.975L186.445 208.044C185.895 208.699 185.155 209.281 184.161 209.765L185.475 212.462ZM188.741 209.975L191.026 211.919C192.423 210.277 193.108 208.301 193.13 206.15L190.131 206.119L187.131 206.089C187.122 206.937 186.881 207.532 186.456 208.031L188.741 209.975ZM190.131 206.119L193.13 206.15C193.153 203.97 192.408 201.952 190.725 200.448L188.726 202.685L186.727 204.922C186.946 205.118 187.138 205.389 187.131 206.089L190.131 206.119ZM188.726 202.685L190.725 200.448C189.387 199.252 187.794 198.436 186.022 197.954L185.235 200.849L184.448 203.744C185.428 204.01 186.162 204.418 186.727 204.922L188.726 202.685ZM185.235 200.849L186.174 198C184.609 197.484 183.044 197.196 181.492 197.18L181.461 200.18L181.43 203.18C182.278 203.188 183.229 203.346 184.296 203.698L185.235 200.849ZM181.461 200.18L181.492 197.18L180.772 197.173L180.741 200.173L180.71 203.172L181.43 203.18L181.461 200.18ZM180.741 200.173L180.772 197.173C180.314 197.168 179.714 197.202 179.101 197.399L180.02 200.255L180.94 203.111C180.799 203.156 180.703 203.168 180.678 203.171C180.649 203.175 180.657 203.172 180.71 203.172L180.741 200.173ZM180.02 200.255L177.064 199.744C176.687 201.926 176.249 204.23 175.75 206.657L178.688 207.262L181.627 207.867C182.138 205.384 182.588 203.017 182.977 200.766L180.02 200.255ZM178.688 207.262L175.75 206.657C175.238 209.144 174.787 211.545 174.397 213.86L177.355 214.358L180.314 214.857C180.69 212.619 181.128 210.289 181.627 207.867L178.688 207.262ZM204.73 228.231L207.065 226.348V226.348L204.73 228.231ZM202.464 203.546L199.542 202.865V202.865L202.464 203.546ZM206.089 192.423L208.853 193.589L208.853 193.589L206.089 192.423ZM211.413 182.307L213.929 183.941L213.933 183.934L211.413 182.307ZM222.519 170.091L220.716 167.693L220.716 167.693L222.519 170.091ZM243.868 168.33L241.759 170.463C241.782 170.486 241.804 170.508 241.828 170.529L243.868 168.33ZM247.936 175.393L245.032 176.147C245.034 176.152 245.035 176.157 245.036 176.163L247.936 175.393ZM245.48 204.169L242.667 203.126C242.665 203.131 242.663 203.136 242.661 203.141L245.48 204.169ZM236.86 219.651L234.556 217.729C234.548 217.74 234.539 217.75 234.53 217.761L236.86 219.651ZM225.597 229.616L227.084 232.221L227.096 232.214L225.597 229.616ZM226.552 215.495L224.623 213.197C224.612 213.206 224.601 213.215 224.591 213.225L226.552 215.495ZM231.932 208.71L234.578 210.125C234.582 210.117 234.586 210.109 234.59 210.101L231.932 208.71ZM235.263 199.923L232.35 199.206V199.206L235.263 199.923ZM236.19 188.592L233.222 189.03C233.223 189.038 233.224 189.047 233.225 189.055L236.19 188.592ZM235.05 185.611L237.509 183.892L237.509 183.892L235.05 185.611ZM224.772 187.305L226.746 189.564C226.757 189.554 226.768 189.545 226.779 189.535L224.772 187.305ZM219.115 194.807L216.435 193.459C216.431 193.466 216.428 193.473 216.424 193.479L219.115 194.807ZM215.69 203.952L212.781 203.222V203.222L215.69 203.952ZM215.835 216.104L213.306 217.717C213.317 217.735 213.328 217.752 213.339 217.769L215.835 216.104ZM214.402 232.921L214.433 229.921C211.371 229.889 208.992 228.736 207.065 226.348L204.73 228.231L202.395 230.114C205.445 233.897 209.514 235.87 214.371 235.92L214.402 232.921ZM204.73 228.231L207.065 226.348C205.199 224.034 204.032 220.216 204.093 214.364L201.093 214.333L198.093 214.302C198.026 220.809 199.284 226.256 202.395 230.114L204.73 228.231ZM201.093 214.333L204.093 214.364C204.125 211.189 204.55 207.813 205.386 204.227L202.464 203.546L199.542 202.865C198.62 206.822 198.131 210.637 198.093 214.302L201.093 214.333ZM202.464 203.546L205.386 204.227C206.225 200.625 207.38 197.08 208.853 193.589L206.089 192.423L203.324 191.257C201.722 195.055 200.461 198.925 199.542 202.865L202.464 203.546ZM206.089 192.423L208.853 193.589C210.326 190.096 212.02 186.882 213.929 183.941L211.413 182.307L208.897 180.674C206.782 183.931 204.926 187.461 203.324 191.257L206.089 192.423ZM211.413 182.307L213.933 183.934C217 179.183 220.469 175.385 224.322 172.489L222.519 170.091L220.716 167.693C216.224 171.071 212.289 175.418 208.892 180.68L211.413 182.307ZM222.519 170.091L224.322 172.489C228.046 169.688 231.781 168.416 235.587 168.455L235.618 165.455L235.648 162.455C230.334 162.401 225.337 164.219 220.716 167.693L222.519 170.091ZM235.618 165.455L235.587 168.455C238.684 168.487 240.582 169.3 241.759 170.463L243.868 168.33L245.978 166.197C243.353 163.602 239.751 162.498 235.648 162.455L235.618 165.455ZM243.868 168.33L241.828 170.529C243.322 171.916 244.409 173.747 245.032 176.147L247.936 175.393L250.84 174.638C249.962 171.262 248.337 168.385 245.909 166.131L243.868 168.33ZM247.936 175.393L245.036 176.163C245.715 178.717 246.044 181.391 246.015 184.193L249.015 184.224L252.015 184.255C252.049 180.937 251.659 177.723 250.835 174.623L247.936 175.393ZM249.015 184.224L246.015 184.193C245.945 191.017 244.82 197.32 242.667 203.126L245.48 204.169L248.293 205.212C250.706 198.704 251.938 191.71 252.015 184.255L249.015 184.224ZM245.48 204.169L242.661 203.141C240.536 208.97 237.822 213.814 234.556 217.729L236.86 219.651L239.164 221.573C242.945 217.04 245.978 211.562 248.298 205.196L245.48 204.169ZM236.86 219.651L234.53 217.761C231.188 221.88 227.703 224.936 224.097 227.017L225.597 229.616L227.096 232.214C231.458 229.697 235.482 226.11 239.19 221.541L236.86 219.651ZM225.597 229.616L224.11 227.01C220.523 229.058 217.313 229.95 214.433 229.921L214.402 232.921L214.371 235.92C218.571 235.964 222.824 234.653 227.084 232.221L225.597 229.616ZM219.415 218.121L219.384 221.121C222.821 221.157 225.907 220.017 228.514 217.764L226.552 215.495L224.591 213.225C223.081 214.53 221.408 215.142 219.446 215.122L219.415 218.121ZM226.552 215.495L228.481 217.792C230.927 215.739 232.951 213.165 234.578 210.125L231.932 208.71L229.287 207.295C227.976 209.745 226.414 211.693 224.623 213.197L226.552 215.495ZM231.932 208.71L234.59 210.101C236.17 207.084 237.366 203.929 238.176 200.641L235.263 199.923L232.35 199.206C231.657 202.023 230.632 204.725 229.275 207.318L231.932 208.71ZM235.263 199.923L238.176 200.641C238.968 197.422 239.4 194.431 239.428 191.686L236.428 191.655L233.428 191.624C233.406 193.799 233.06 196.32 232.35 199.206L235.263 199.923ZM236.428 191.655L239.428 191.686C239.44 190.54 239.345 189.352 239.154 188.13L236.19 188.592L233.225 189.055C233.372 189.996 233.436 190.851 233.428 191.624L236.428 191.655ZM236.19 188.592L239.157 188.155C238.929 186.607 238.397 185.163 237.509 183.892L235.05 185.611L232.591 187.329C232.886 187.75 233.113 188.294 233.222 189.03L236.19 188.592ZM235.05 185.611L237.509 183.892C236.238 182.073 234.292 181.342 232.304 181.322L232.273 184.322L232.242 187.322C232.392 187.323 232.495 187.337 232.56 187.35C232.592 187.357 232.615 187.363 232.629 187.367C232.643 187.372 232.649 187.375 232.65 187.375C232.65 187.375 232.645 187.373 232.638 187.368C232.63 187.364 232.622 187.357 232.613 187.35C232.594 187.334 232.587 187.323 232.591 187.329L235.05 185.611ZM232.273 184.322L232.304 181.322C228.72 181.285 225.509 182.606 222.765 185.075L224.772 187.305L226.779 189.535C228.517 187.97 230.307 187.302 232.242 187.322L232.273 184.322ZM224.772 187.305L222.798 185.046C220.227 187.292 218.115 190.118 216.435 193.459L219.115 194.807L221.795 196.155C223.177 193.407 224.837 191.232 226.746 189.564L224.772 187.305ZM219.115 194.807L216.424 193.479C214.809 196.752 213.589 200 212.781 203.222L215.69 203.952L218.6 204.682C219.293 201.92 220.356 199.071 221.805 196.135L219.115 194.807ZM215.69 203.952L212.781 203.222C211.986 206.388 211.555 209.354 211.526 212.1L214.526 212.131L217.526 212.162C217.548 209.988 217.893 207.501 218.6 204.682L215.69 203.952ZM214.526 212.131L211.526 212.1C211.506 214.096 212.202 215.986 213.306 217.717L215.835 216.104L218.365 214.492C217.697 213.444 217.521 212.685 217.526 212.162L214.526 212.131ZM215.835 216.104L213.339 217.769C214.734 219.86 216.818 221.095 219.384 221.121L219.415 218.121L219.446 215.122C219.012 215.117 218.71 215.008 218.331 214.44L215.835 216.104ZM249.112 228.687L251.448 226.804V226.804L249.112 228.687ZM246.846 204.003L243.925 203.322V203.322L246.846 204.003ZM250.471 192.88L253.235 194.046L253.235 194.046L250.471 192.88ZM255.795 182.764L258.312 184.397L258.316 184.391L255.795 182.764ZM266.902 170.547L265.099 168.15V168.15L266.902 170.547ZM288.251 168.787L286.141 170.92C286.164 170.942 286.187 170.964 286.21 170.986L288.251 168.787ZM292.318 175.849L289.415 176.604C289.416 176.609 289.417 176.614 289.419 176.619L292.318 175.849ZM289.862 204.625L287.049 203.582C287.047 203.587 287.046 203.593 287.044 203.598L289.862 204.625ZM281.242 220.108L278.939 218.186C278.93 218.196 278.921 218.207 278.913 218.217L281.242 220.108ZM269.979 230.072L271.467 232.678L271.479 232.671L269.979 230.072ZM270.935 215.951L269.006 213.654C268.995 213.663 268.984 213.672 268.973 213.682L270.935 215.951ZM276.315 209.166L278.96 210.581C278.964 210.574 278.968 210.566 278.972 210.558L276.315 209.166ZM279.645 200.38L276.732 199.663V199.663L279.645 200.38ZM280.572 189.049L277.604 189.486C277.605 189.495 277.607 189.503 277.608 189.512L280.572 189.049ZM279.433 186.067L281.892 184.349L281.892 184.349L279.433 186.067ZM269.155 187.762L271.128 190.021C271.139 190.011 271.151 190.001 271.162 189.991L269.155 187.762ZM263.497 195.264L260.817 193.916C260.814 193.922 260.81 193.929 260.807 193.936L263.497 195.264ZM260.073 204.409L257.163 203.679V203.679L260.073 204.409ZM260.218 216.561L257.688 218.174C257.699 218.191 257.71 218.208 257.722 218.226L260.218 216.561ZM258.785 233.377L258.816 230.377C255.753 230.346 253.374 229.193 251.448 226.804L249.112 228.687L246.777 230.571C249.828 234.353 253.897 236.327 258.754 236.377L258.785 233.377ZM249.112 228.687L251.448 226.804C249.582 224.49 248.415 220.672 248.475 214.82L245.475 214.789L242.475 214.758C242.408 221.266 243.666 226.713 246.777 230.571L249.112 228.687ZM245.475 214.789L248.475 214.82C248.508 211.646 248.932 208.269 249.768 204.684L246.846 204.003L243.925 203.322C243.002 207.279 242.513 211.093 242.475 214.758L245.475 214.789ZM246.846 204.003L249.768 204.684C250.607 201.082 251.762 197.536 253.235 194.046L250.471 192.88L247.707 191.713C246.104 195.511 244.843 199.381 243.925 203.322L246.846 204.003ZM250.471 192.88L253.235 194.046C254.709 190.553 256.402 187.339 258.312 184.397L255.795 182.764L253.279 181.13C251.164 184.388 249.308 187.918 247.707 191.713L250.471 192.88ZM255.795 182.764L258.316 184.391C261.382 179.639 264.852 175.842 268.704 172.945L266.902 170.547L265.099 168.15C260.606 171.527 256.671 175.874 253.275 181.137L255.795 182.764ZM266.902 170.547L268.704 172.945C272.429 170.145 276.164 168.873 279.969 168.912L280 165.912L280.031 162.912C274.717 162.857 269.719 164.675 265.099 168.15L266.902 170.547ZM280 165.912L279.969 168.912C283.067 168.944 284.964 169.756 286.141 170.92L288.251 168.787L290.36 166.654C287.736 164.059 284.133 162.954 280.031 162.912L280 165.912ZM288.251 168.787L286.21 170.986C287.705 172.373 288.791 174.204 289.415 176.604L292.318 175.849L295.222 175.095C294.345 171.719 292.72 168.841 290.292 166.588L288.251 168.787ZM292.318 175.849L289.419 176.619C290.097 179.174 290.427 181.848 290.398 184.65L293.398 184.681L296.397 184.712C296.432 181.394 296.041 178.18 295.218 175.079L292.318 175.849ZM293.398 184.681L290.398 184.65C290.328 191.474 289.203 197.777 287.049 203.582L289.862 204.625L292.675 205.669C295.089 199.161 296.321 192.167 296.397 184.712L293.398 184.681ZM289.862 204.625L287.044 203.598C284.919 209.427 282.204 214.271 278.939 218.186L281.242 220.108L283.546 222.029C287.328 217.496 290.36 212.019 292.681 205.653L289.862 204.625ZM281.242 220.108L278.913 218.217C275.571 222.336 272.086 225.393 268.48 227.474L269.979 230.072L271.479 232.671C275.841 230.153 279.864 226.567 283.572 221.998L281.242 220.108ZM269.979 230.072L268.492 227.467C264.905 229.514 261.695 230.407 258.816 230.377L258.785 233.377L258.754 236.377C262.954 236.42 267.207 235.11 271.467 232.678L269.979 230.072ZM263.797 218.578L263.766 221.578C267.203 221.613 270.289 220.474 272.896 218.221L270.935 215.951L268.973 213.682C267.463 214.987 265.791 215.598 263.828 215.578L263.797 218.578ZM270.935 215.951L272.863 218.249C275.309 216.196 277.334 213.621 278.96 210.581L276.315 209.166L273.669 207.751C272.359 210.201 270.797 212.15 269.006 213.654L270.935 215.951ZM276.315 209.166L278.972 210.558C280.552 207.541 281.749 204.386 282.558 201.097L279.645 200.38L276.732 199.663C276.039 202.479 275.015 205.182 273.657 207.775L276.315 209.166ZM279.645 200.38L282.558 201.097C283.351 197.879 283.782 194.887 283.81 192.143L280.81 192.112L277.811 192.081C277.788 194.256 277.443 196.776 276.732 199.663L279.645 200.38ZM280.81 192.112L283.81 192.143C283.822 190.996 283.727 189.809 283.536 188.586L280.572 189.049L277.608 189.512C277.755 190.453 277.819 191.307 277.811 192.081L280.81 192.112ZM280.572 189.049L283.54 188.612C283.312 187.064 282.78 185.62 281.892 184.349L279.433 186.067L276.974 187.786C277.268 188.207 277.496 188.75 277.604 189.486L280.572 189.049ZM279.433 186.067L281.892 184.349C280.62 182.529 278.674 181.799 276.687 181.779L276.656 184.779L276.625 187.778C276.774 187.78 276.877 187.794 276.943 187.807C276.975 187.813 276.997 187.82 277.011 187.824C277.025 187.829 277.032 187.832 277.032 187.832C277.032 187.832 277.028 187.83 277.02 187.825C277.013 187.82 277.004 187.814 276.996 187.807C276.976 187.791 276.97 187.78 276.974 187.786L279.433 186.067ZM276.656 184.779L276.687 181.779C273.103 181.742 269.891 183.062 267.148 185.532L269.155 187.762L271.162 189.991C272.9 188.427 274.689 187.758 276.625 187.778L276.656 184.779ZM269.155 187.762L267.181 185.502C264.609 187.749 262.498 190.575 260.817 193.916L263.497 195.264L266.177 196.612C267.559 193.864 269.22 191.688 271.128 190.021L269.155 187.762ZM263.497 195.264L260.807 193.936C259.192 197.209 257.971 200.457 257.163 203.679L260.073 204.409L262.983 205.139C263.676 202.376 264.738 199.528 266.187 196.591L263.497 195.264ZM260.073 204.409L257.163 203.679C256.369 206.845 255.937 209.81 255.909 212.557L258.909 212.587L261.908 212.618C261.931 210.445 262.275 207.958 262.983 205.139L260.073 204.409ZM258.909 212.587L255.909 212.557C255.888 214.553 256.584 216.443 257.688 218.174L260.218 216.561L262.747 214.948C262.08 213.901 261.903 213.142 261.908 212.618L258.909 212.587ZM260.218 216.561L257.722 218.226C259.116 220.316 261.2 221.551 263.766 221.578L263.797 218.578L263.828 215.578C263.394 215.574 263.092 215.464 262.714 214.897L260.218 216.561ZM284.187 232.739L281.347 231.773C281.026 232.718 281.195 233.76 281.799 234.554C282.402 235.348 283.36 235.79 284.356 235.734L284.187 232.739ZM291.989 209.328L289.147 208.366C289.143 208.376 289.14 208.387 289.137 208.397L291.989 209.328ZM295.241 199.371L292.381 198.466V198.466L295.241 199.371ZM298.59 188.784L301.451 189.689L301.455 189.676L298.59 188.784ZM301.757 178.466L304.629 179.334L304.629 179.334L301.757 178.466ZM304.277 169.672L304.308 166.672C302.938 166.658 301.732 167.574 301.379 168.899L304.277 169.672ZM313.642 169.228L313.316 166.246L313.308 166.247L313.642 169.228ZM318.238 168.736L317.937 165.751L317.925 165.752L318.238 168.736ZM323.192 168.336L326.166 168.732C326.284 167.843 325.998 166.948 325.387 166.292C324.776 165.636 323.904 165.287 323.009 165.342L323.192 168.336ZM322.607 172.741L325.572 173.195C325.575 173.176 325.578 173.156 325.581 173.136L322.607 172.741ZM322.22 175.347L325.185 175.802C325.187 175.792 325.188 175.783 325.189 175.774L322.22 175.347ZM321.833 177.953L324.802 178.38L324.802 178.38L321.833 177.953ZM321.354 180.738L324.29 181.357C324.292 181.345 324.295 181.333 324.297 181.321L321.354 180.738ZM320.876 183.523L323.847 183.938L323.849 183.926L320.876 183.523ZM319.715 191.342L322.679 191.804L322.68 191.797L319.715 191.342ZM317.894 202.124L314.942 201.593C314.785 202.462 315.02 203.356 315.583 204.036C316.146 204.717 316.98 205.115 317.863 205.124L317.894 202.124ZM319.064 202.136L319.033 205.136C320.277 205.148 321.4 204.392 321.856 203.234L319.064 202.136ZM323.501 190.841L326.294 191.935C326.296 191.929 326.299 191.923 326.301 191.917L323.501 190.841ZM326.367 183.4L329.165 184.482C329.169 184.471 329.174 184.46 329.178 184.449L326.367 183.4ZM329.785 174.885L332.542 176.067V176.067L329.785 174.885ZM332.823 168.256L332.605 165.264C331.561 165.34 330.632 165.955 330.154 166.886L332.823 168.256ZM337.959 167.768L338.289 170.75C338.314 170.747 338.339 170.744 338.365 170.741L337.959 167.768ZM344.089 166.841L343.612 163.879C343.607 163.88 343.602 163.881 343.598 163.882L344.089 166.841ZM349.498 165.997L352.451 166.521C352.62 165.57 352.321 164.596 351.647 163.905C350.974 163.213 350.009 162.887 349.054 163.03L349.498 165.997ZM347 181.272L344.033 180.827C344.032 180.837 344.031 180.847 344.029 180.857L347 181.272ZM345.049 195.923L342.073 195.548C342.071 195.56 342.07 195.571 342.069 195.582L345.049 195.923ZM342.557 219.478L345.544 219.758L345.544 219.754L342.557 219.478ZM341.547 230.179L342.043 233.137C343.383 232.913 344.405 231.815 344.533 230.463L341.547 230.179ZM325.859 232.807L322.859 232.776C322.85 233.664 323.234 234.51 323.909 235.087C324.584 235.664 325.479 235.913 326.355 235.766L325.859 232.807ZM326.171 228.76L323.18 228.521L326.171 228.76ZM327.17 219.14L330.148 219.497V219.497L327.17 219.14ZM328.542 208.264L331.515 208.66L331.516 208.654L328.542 208.264ZM329.889 199.727L332.831 200.315C333.006 199.439 332.782 198.531 332.219 197.837C331.656 197.143 330.814 196.736 329.92 196.727L329.889 199.727ZM329.079 199.719L329.11 196.719C327.815 196.706 326.657 197.525 326.24 198.752L329.079 199.719ZM323.436 214.601L320.662 213.459C320.659 213.468 320.655 213.476 320.651 213.485L323.436 214.601ZM317.042 232.447L317.097 235.446C318.378 235.423 319.503 234.588 319.897 233.369L317.042 232.447ZM311.64 232.661L311.729 235.66C311.769 235.659 311.808 235.657 311.848 235.654L311.64 232.661ZM306.417 232.877L303.431 232.589C303.347 233.457 303.645 234.318 304.247 234.949C304.85 235.58 305.697 235.917 306.568 235.874L306.417 232.877ZM309.641 199.519L312.627 199.807C312.707 198.971 312.434 198.139 311.872 197.513C311.31 196.888 310.512 196.528 309.671 196.519L309.641 199.519ZM308.291 199.505L308.321 196.505C306.77 196.489 305.462 197.659 305.306 199.202L308.291 199.505ZM307.441 203.366L310.338 204.146C310.34 204.138 310.342 204.131 310.344 204.124L307.441 203.366ZM305.664 209.828L308.549 210.654C308.55 210.648 308.552 210.642 308.554 210.635L305.664 209.828ZM303.52 217.007L300.656 216.115C300.652 216.127 300.649 216.139 300.645 216.15L303.52 217.007ZM299.047 231.901L299.216 234.897C300.432 234.828 301.486 234.031 301.883 232.879L299.047 231.901ZM284.187 232.739L287.028 233.704C289.754 225.681 292.358 217.865 294.841 210.258L291.989 209.328L289.137 208.397C286.662 215.98 284.066 223.772 281.347 231.773L284.187 232.739ZM291.989 209.328L294.83 210.289C295.89 207.159 296.98 203.821 298.102 200.275L295.241 199.371L292.381 198.466C291.27 201.978 290.192 205.278 289.147 208.366L291.989 209.328ZM295.241 199.371L298.102 200.275C299.218 196.747 300.334 193.218 301.451 189.689L298.59 188.784L295.73 187.88C294.614 191.408 293.497 194.937 292.381 198.466L295.241 199.371ZM298.59 188.784L301.455 189.676C302.574 186.08 303.632 182.633 304.629 179.334L301.757 178.466L298.885 177.599C297.894 180.88 296.841 184.311 295.726 187.893L298.59 188.784ZM301.757 178.466L304.629 179.334C305.629 176.021 306.479 173.057 307.176 170.445L304.277 169.672L301.379 168.899C300.703 171.433 299.872 174.332 298.885 177.599L301.757 178.466ZM304.277 169.672L304.246 172.672C307.655 172.707 310.899 172.554 313.976 172.21L313.642 169.228L313.308 166.247C310.499 166.562 307.5 166.705 304.308 166.672L304.277 169.672ZM313.642 169.228L313.969 172.21C315.466 172.046 316.993 171.883 318.551 171.719L318.238 168.736L317.925 165.752C316.358 165.916 314.822 166.081 313.316 166.246L313.642 169.228ZM318.238 168.736L318.538 171.72C320.12 171.561 321.732 171.431 323.375 171.331L323.192 168.336L323.009 165.342C321.29 165.447 319.599 165.583 317.937 165.751L318.238 168.736ZM323.192 168.336L320.218 167.941L319.633 172.345L322.607 172.741L325.581 173.136L326.166 168.732L323.192 168.336ZM322.607 172.741L319.641 172.286C319.511 173.134 319.381 174.012 319.25 174.92L322.22 175.347L325.189 175.774C325.317 174.884 325.445 174.024 325.572 173.195L322.607 172.741ZM322.22 175.347L319.255 174.892C319.124 175.741 318.994 176.619 318.864 177.526L321.833 177.953L324.802 178.38C324.931 177.49 325.058 176.631 325.185 175.802L322.22 175.347ZM321.833 177.953L318.864 177.526C318.742 178.369 318.592 179.245 318.412 180.155L321.354 180.738L324.297 181.321C324.497 180.315 324.665 179.335 324.802 178.38L321.833 177.953ZM321.354 180.738L318.419 180.12C318.214 181.093 318.042 182.094 317.903 183.121L320.876 183.523L323.849 183.926C323.969 183.036 324.116 182.18 324.29 181.357L321.354 180.738ZM320.876 183.523L317.904 183.109C317.648 184.946 317.264 187.537 316.75 190.887L319.715 191.342L322.68 191.797C323.196 188.437 323.585 185.815 323.847 183.938L320.876 183.523ZM319.715 191.342L316.751 190.88C316.241 194.148 315.638 197.719 314.942 201.593L317.894 202.124L320.847 202.655C321.55 198.743 322.161 195.126 322.679 191.804L319.715 191.342ZM317.894 202.124L317.863 205.124L319.033 205.136L319.064 202.136L319.095 199.136L317.925 199.124L317.894 202.124ZM319.064 202.136L321.856 203.234C323.643 198.692 325.122 194.925 326.294 191.935L323.501 190.841L320.707 189.746C319.537 192.733 318.059 196.496 316.272 201.037L319.064 202.136ZM323.501 190.841L326.301 191.917C327.472 188.87 328.427 186.392 329.165 184.482L326.367 183.4L323.569 182.318C322.828 184.233 321.872 186.716 320.7 189.765L323.501 190.841ZM326.367 183.4L329.178 184.449C330.209 181.686 331.331 178.892 332.542 176.067L329.785 174.885L327.028 173.702C325.78 176.612 324.623 179.495 323.557 182.351L326.367 183.4ZM329.785 174.885L332.542 176.067C333.762 173.222 334.743 171.086 335.493 169.625L332.823 168.256L330.154 166.886C329.311 168.529 328.267 170.813 327.028 173.702L329.785 174.885ZM332.823 168.256L333.042 171.248C334.531 171.139 336.282 170.972 338.289 170.75L337.959 167.768L337.628 164.787C335.67 165.004 333.998 165.162 332.605 165.264L332.823 168.256ZM337.959 167.768L338.365 170.741C340.436 170.458 342.508 170.145 344.579 169.801L344.089 166.841L343.598 163.882C341.582 164.216 339.567 164.521 337.553 164.796L337.959 167.768ZM344.089 166.841L344.565 169.803C346.662 169.466 348.453 169.186 349.941 168.964L349.498 165.997L349.054 163.03C347.537 163.257 345.723 163.54 343.612 163.879L344.089 166.841ZM349.498 165.997L346.544 165.473C345.647 170.531 344.81 175.649 344.033 180.827L347 181.272L349.967 181.717C350.736 176.591 351.564 171.525 352.451 166.521L349.498 165.997ZM347 181.272L344.029 180.857C343.315 185.962 342.663 190.859 342.073 195.548L345.049 195.923L348.026 196.297C348.612 191.638 349.261 186.768 349.971 181.688L347 181.272ZM345.049 195.923L342.069 195.582C341.541 200.202 341.077 204.375 340.678 208.1L343.661 208.419L346.644 208.739C347.041 205.031 347.503 200.873 348.03 196.264L345.049 195.923ZM343.661 208.419L340.678 208.1C340.278 211.83 339.909 215.531 339.57 219.203L342.557 219.478L345.544 219.754C345.88 216.112 346.247 212.441 346.644 208.739L343.661 208.419ZM342.557 219.478L339.57 219.199C339.233 222.794 338.896 226.359 338.56 229.895L341.547 230.179L344.533 230.463C344.87 226.925 345.207 223.356 345.544 219.758L342.557 219.478ZM341.547 230.179L341.051 227.22L325.363 229.849L325.859 232.807L326.355 235.766L342.043 233.137L341.547 230.179ZM325.859 232.807L328.859 232.838C328.858 232.926 328.854 232.943 328.871 232.701C328.884 232.526 328.903 232.271 328.929 231.936C328.98 231.266 329.058 230.288 329.161 229L326.171 228.76L323.18 228.521C322.983 230.984 322.862 232.518 322.859 232.776L325.859 232.807ZM326.171 228.76L329.161 229C329.363 226.475 329.691 223.31 330.148 219.497L327.17 219.14L324.191 218.783C323.729 222.641 323.391 225.89 323.18 228.521L326.171 228.76ZM327.17 219.14L330.148 219.497C330.606 215.673 331.062 212.061 331.515 208.66L328.542 208.264L325.568 207.867C325.111 211.297 324.652 214.936 324.191 218.783L327.17 219.14ZM328.542 208.264L331.516 208.654C331.967 205.213 332.407 202.44 332.831 200.315L329.889 199.727L326.948 199.139C326.487 201.446 326.027 204.364 325.567 207.874L328.542 208.264ZM329.889 199.727L329.92 196.727L329.11 196.719L329.079 199.719L329.049 202.719L329.859 202.727L329.889 199.727ZM329.079 199.719L326.24 198.752C324.717 203.226 322.859 208.128 320.662 213.459L323.436 214.601L326.21 215.744C328.444 210.32 330.349 205.3 331.919 200.685L329.079 199.719ZM323.436 214.601L320.651 213.485C318.466 218.937 316.312 224.951 314.188 231.524L317.042 232.447L319.897 233.369C321.986 226.905 324.095 221.022 326.221 215.717L323.436 214.601ZM317.042 232.447L316.987 229.447C314.854 229.486 312.999 229.559 311.431 229.668L311.64 232.661L311.848 235.654C313.283 235.554 315.029 235.484 317.097 235.446L317.042 232.447ZM311.64 232.661L311.551 229.662C310.024 229.708 308.262 229.781 306.266 229.881L306.417 232.877L306.568 235.874C308.534 235.775 310.254 235.704 311.729 235.66L311.64 232.661ZM306.417 232.877L309.403 233.166L312.627 199.807L309.641 199.519L306.654 199.23L303.431 232.589L306.417 232.877ZM309.641 199.519L309.671 196.519L308.321 196.505L308.291 199.505L308.26 202.505L309.61 202.519L309.641 199.519ZM308.291 199.505L305.306 199.202C305.266 199.593 305.047 200.657 304.538 202.609L307.441 203.366L310.344 204.124C310.834 202.246 311.181 200.735 311.275 199.807L308.291 199.505ZM307.441 203.366L304.544 202.587C304.048 204.43 303.458 206.575 302.775 209.021L305.664 209.828L308.554 210.635C309.241 208.176 309.836 206.012 310.338 204.146L307.441 203.366ZM305.664 209.828L302.78 209.003C302.102 211.374 301.394 213.745 300.656 216.115L303.52 217.007L306.385 217.898C307.136 215.484 307.857 213.069 308.549 210.654L305.664 209.828ZM303.52 217.007L300.645 216.15C299.247 220.846 298.176 224.432 297.431 226.911C297.059 228.151 296.769 229.111 296.561 229.793C296.457 230.135 296.375 230.403 296.313 230.601C296.282 230.699 296.258 230.777 296.239 230.836C296.23 230.865 296.223 230.887 296.217 230.903C296.212 230.921 296.21 230.926 296.211 230.924L299.047 231.901L301.883 232.879C302.096 232.261 303.618 227.19 306.395 217.863L303.52 217.007ZM299.047 231.901L298.878 228.906L284.019 229.743L284.187 232.739L284.356 235.734L299.216 234.897L299.047 231.901Z" fill="#FFDC54" mask="url(#path-4-outside-1_659_346)"/>
</svg>
