<svg width="513" height="459" viewBox="0 0 513 459" fill="none" xmlns="http://www.w3.org/2000/svg">
<path d="M210.495 26.5C230.895 -8.83335 281.894 -8.83331 302.294 26.5L505.609 378.653C526.009 413.986 500.509 458.152 459.71 458.152H53.079C12.2796 458.152 -13.22 413.986 7.17973 378.652L210.495 26.5Z" fill="#55FF00"/>
<path d="M210.495 26.5C230.895 -8.83332 281.894 -8.83334 302.294 26.5L505.609 378.652C525.85 413.71 500.905 457.463 460.663 458.145L459.71 458.152V438.152C485.113 438.152 500.99 410.652 488.288 388.652L284.973 36.5C272.271 14.5002 240.517 14.5001 227.815 36.5L24.5 388.652C11.7983 410.652 27.6757 438.152 53.0791 438.152V458.152L52.126 458.145C12.201 457.469 -12.6668 414.396 6.70994 379.482L7.17967 378.652L210.495 26.5ZM459.71 438.152V458.152H53.0791V438.152H459.71Z" fill="black"/>
<mask id="path-3-outside-1_648_2691" maskUnits="userSpaceOnUse" x="141.895" y="213.151" width="236" height="197" fill="black">
<rect fill="white" x="141.895" y="213.151" width="236" height="197"/>
<path d="M221.742 393.892L199.481 393.408L161.734 242.178L183.753 236.613L212.063 348.644L244.729 244.84H266.506L296.027 340.417L335.467 234.193L356.761 242.178L305.705 379.858L284.17 379.132L255.618 286.7L221.742 393.892Z"/>
</mask>
<path d="M221.742 393.892L199.481 393.408L161.734 242.178L183.753 236.613L212.063 348.644L244.729 244.84H266.506L296.027 340.417L335.467 234.193L356.761 242.178L305.705 379.858L284.17 379.132L255.618 286.7L221.742 393.892Z" fill="white"/>
<path d="M221.742 393.892L221.4 409.64L233.203 409.896L236.761 398.639L221.742 393.892ZM199.481 393.408L184.199 397.223L187.112 408.894L199.139 409.156L199.481 393.408ZM161.734 242.178L157.874 226.907L142.649 230.755L146.452 245.992L161.734 242.178ZM183.753 236.613L199.024 232.754L195.165 217.482L179.893 221.342L183.753 236.613ZM212.063 348.644L196.792 352.503L210.407 406.38L227.088 353.372L212.063 348.644ZM244.729 244.84V229.089H233.173L229.705 240.112L244.729 244.84ZM266.506 244.84L281.556 240.191L278.127 229.089H266.506V244.84ZM296.027 340.417L280.977 345.065L294.657 389.357L310.792 345.9L296.027 340.417ZM335.467 234.193L340.998 219.445L326.202 213.896L320.701 228.71L335.467 234.193ZM356.761 242.178L371.529 247.654L376.985 232.94L362.291 227.43L356.761 242.178ZM305.705 379.858L305.175 395.6L316.525 395.983L320.473 385.335L305.705 379.858ZM284.17 379.132L269.121 383.781L272.431 394.496L283.639 394.874L284.17 379.132ZM255.618 286.7L270.667 282.051L255.789 233.888L240.599 281.954L255.618 286.7ZM221.742 393.892L222.084 378.145L199.823 377.661L199.481 393.408L199.139 409.156L221.4 409.64L221.742 393.892ZM199.481 393.408L214.763 389.594L177.016 238.364L161.734 242.178L146.452 245.992L184.199 397.223L199.481 393.408ZM161.734 242.178L165.594 257.449L187.613 251.883L183.753 236.613L179.893 221.342L157.874 226.907L161.734 242.178ZM183.753 236.613L168.482 240.472L196.792 352.503L212.063 348.644L227.334 344.785L199.024 232.754L183.753 236.613ZM212.063 348.644L227.088 353.372L259.754 249.568L244.729 244.84L229.705 240.112L197.039 343.916L212.063 348.644ZM244.729 244.84V260.591H266.506V244.84V229.089H244.729V244.84ZM266.506 244.84L251.457 249.488L280.977 345.065L296.027 340.417L311.076 335.769L281.556 240.191L266.506 244.84ZM296.027 340.417L310.792 345.9L350.233 239.676L335.467 234.193L320.701 228.71L281.261 334.935L296.027 340.417ZM335.467 234.193L329.937 248.941L351.23 256.926L356.761 242.178L362.291 227.43L340.998 219.445L335.467 234.193ZM356.761 242.178L341.992 236.702L290.937 374.382L305.705 379.858L320.473 385.335L371.529 247.654L356.761 242.178ZM305.705 379.858L306.236 364.116L284.701 363.39L284.17 379.132L283.639 394.874L305.175 395.6L305.705 379.858ZM284.17 379.132L299.219 374.483L270.667 282.051L255.618 286.7L240.568 291.349L269.121 383.781L284.17 379.132ZM255.618 286.7L240.599 281.954L206.723 389.146L221.742 393.892L236.761 398.639L270.637 291.447L255.618 286.7Z" fill="black" mask="url(#path-3-outside-1_648_2691)"/>
</svg>
