<svg width="275" height="281" viewBox="0 0 275 281" fill="none" xmlns="http://www.w3.org/2000/svg">
<path d="M215.226 257.593C185.607 279.884 152.355 282.935 116.777 279.052C79.6896 275.008 54.9986 252.211 31.8544 226.699C20.5303 214.217 10.3904 200.498 5.80316 183.749C-5.14219 143.83 -0.794983 105.857 20.4663 70.0392C31.913 50.7674 46.7789 34.296 64.5144 21.0091C79.8176 9.54633 98.2679 4.53775 117.198 1.71607C149.794 -3.14853 180.63 2.18009 208.543 19.6116C248.91 44.8147 273.132 80.2431 273.916 129.321C274.007 134.949 273.927 140.576 273.927 143.595C278.685 196.119 252.378 229.632 215.232 257.593H215.226Z" fill="#F2DF2C"/>
<path d="M264.293 143.408C264.293 140.597 264.368 135.37 264.283 130.137C263.557 84.5157 241.037 51.5836 203.518 28.1567C177.573 11.9574 148.908 7.00214 118.611 11.5254C101.02 14.1497 83.8656 18.8009 69.6399 29.4582C53.1525 41.8118 39.3321 57.1203 28.6962 75.0318C8.93372 108.327 4.89055 143.622 15.0678 180.73C19.335 196.3 28.7602 209.048 39.2841 220.655C60.7961 244.37 83.7483 265.562 118.222 269.322C151.293 272.934 182.198 270.096 209.732 249.373C244.259 223.386 268.715 192.23 264.293 143.408ZM204.003 244.295C178.416 263.151 149.74 264.709 119.593 261.748C86.714 258.526 64.8873 238.172 44.5061 215.417C35.2996 205.139 26.6959 194.076 22.8234 180.442C12.1394 142.88 16.572 107.409 37.908 74.3118C47.1251 60.0113 58.9559 47.9938 71.8375 37.2832C86.0099 25.495 103.687 21.5053 121.614 18.9183C151.746 14.5711 179.696 21.0092 204.755 37.7152C236.391 58.8112 255.044 88.1375 256.612 126.99C256.884 133.706 256.65 140.437 256.65 144.944C260.666 191.196 236.85 220.084 203.998 244.301L204.003 244.295Z" fill="black"/>
<path d="M256.656 144.939C256.656 140.432 256.89 133.701 256.618 126.985C255.05 88.1269 236.397 58.8006 204.761 37.71C179.702 21.004 151.752 14.5712 121.62 18.913C103.698 21.5 86.0213 25.4898 71.8435 37.2779C58.9619 47.9939 47.1312 60.0061 37.914 74.3065C16.5781 107.404 12.1402 142.875 22.8295 180.437C26.7073 194.065 35.3057 205.133 44.5122 215.412C64.888 238.167 86.72 258.527 119.599 261.743C149.752 264.703 178.427 263.146 204.009 244.29C236.861 220.079 260.677 191.185 256.661 144.934L256.656 144.939ZM141.708 215.545C97.7934 215.775 64.1893 187.755 62.1783 145.43C60.5355 110.834 89.7711 65.3881 134.545 67.1803C177.478 68.8925 212.736 97.9841 212.922 143.728C213.253 185.483 178.859 215.348 141.708 215.545Z" fill="#FB6D17"/>
<path d="M134.544 67.1803C89.7762 65.3881 60.5353 110.834 62.1781 145.43C64.1891 187.755 97.7932 215.775 141.708 215.545C178.859 215.348 213.253 185.483 212.922 143.728C212.735 97.9841 177.478 68.8925 134.544 67.1803ZM140.684 207.944C101.116 207.779 71.79 183.285 69.6351 144.971C67.9282 114.589 95.1155 72.8237 134.48 74.7866C172.922 76.0774 205.001 102.049 205.374 143.126C205.727 182.122 174.645 208.088 140.684 207.944Z" fill="black"/>
<path d="M46.8115 123.566C47.5209 123.529 48.2303 123.401 48.9504 123.427C49.8732 123.454 50.796 123.582 51.6921 123.806C52.2041 123.934 52.7322 124.11 53.0896 124.494C53.3296 124.75 53.4736 125.076 53.591 125.406C53.7937 125.956 53.9324 126.553 53.8363 127.129C53.639 128.303 52.5082 129.124 51.3454 129.38C50.1826 129.636 48.9824 129.46 47.7929 129.375C46.6088 129.29 45.35 129.311 44.3258 129.914C43.7498 130.255 43.2377 130.906 43.4244 131.546C43.5311 131.914 43.8404 132.186 44.1498 132.41C44.6245 132.751 45.1366 133.034 45.6807 133.258C47.5262 134.005 49.6118 133.967 51.4787 134.656C52.0708 134.874 52.6895 135.21 52.9296 135.792C53.1803 136.4 52.9402 137.13 52.4655 137.584C51.9961 138.043 51.3347 138.256 50.684 138.341C50.0332 138.427 49.3718 138.389 48.7157 138.411C47.9529 138.437 47.1955 138.549 46.4594 138.741C45.91 138.885 45.2806 139.168 45.1846 139.728C45.0779 140.347 45.686 140.843 46.2567 141.11C47.1742 141.536 48.2516 141.531 49.0891 142.027C49.7878 142.438 50.5026 142.838 51.132 143.35C52.5669 144.529 52.6309 146.012 51.5534 147.5C50.4813 148.983 48.7104 149.292 46.9982 149.095C44.9712 148.865 42.9817 148.113 41.0188 147.574C37.893 146.716 34.6393 145.644 32.4524 143.249C31.759 142.491 31.1722 141.504 31.3322 140.491C31.5189 139.323 32.6444 138.523 33.7699 138.165C34.9007 137.808 36.1115 137.744 37.2156 137.323C37.5837 137.184 37.941 136.997 38.2024 136.704C38.4318 136.448 38.5651 136.122 38.6558 135.792C38.9172 134.826 38.7785 133.765 38.2878 132.895C37.301 131.151 35.194 130.463 33.5192 129.364C33.0978 129.087 32.6817 128.761 32.463 128.303C32.031 127.407 32.5217 126.292 33.3058 125.684C34.0952 125.081 35.1034 124.868 36.0742 124.67C37.8077 124.318 39.4612 123.998 41.2214 123.881C42.939 123.769 44.6672 123.555 46.3794 123.577C46.5181 123.577 46.6621 123.577 46.8008 123.566H46.8115Z" fill="black"/>
<path d="M59.6231 92.1698C57.2174 91.359 55.1212 89.7322 53.2863 87.9506C52.3368 87.0278 51.4354 86.0464 50.7473 84.9156C49.5631 82.9687 49.0724 80.6431 49.1898 78.3708C49.2271 77.6774 49.3178 76.9839 49.5045 76.3172C49.9205 74.8397 50.806 73.5542 51.8088 72.4074C52.8542 71.2126 53.8037 70.1991 55.3452 69.6977C56.1079 69.447 56.94 69.319 57.7188 69.5164C58.4976 69.7191 59.2123 70.3004 59.399 71.0845C59.511 71.5486 59.431 72.0393 59.2817 72.4874C58.8763 73.7302 57.9962 74.7544 57.2228 75.8052C56.4493 76.8613 55.7346 78.0614 55.7612 79.3682C55.7612 79.6403 55.8092 79.9229 55.9586 80.1523C56.2146 80.5364 56.716 80.6751 57.1747 80.6591C57.8202 80.6377 58.4549 80.355 58.9083 79.8856C59.2977 79.4802 59.543 78.9628 59.8417 78.4828C60.2898 77.7627 60.8872 77.112 61.6446 76.7279C62.4021 76.3439 63.3355 76.2532 64.1036 76.6159C65.1117 77.0906 65.6665 78.3601 65.3304 79.4269C65.1117 80.1203 64.5837 80.6697 64.0449 81.1604C63.5062 81.6512 62.9301 82.1259 62.5621 82.7553C62.194 83.3847 62.082 84.2275 62.4981 84.8249C62.9141 85.4276 63.7462 85.6143 64.4716 85.5023C65.0957 85.4063 65.6878 85.1236 66.1519 84.7022C66.6853 84.2222 67.0426 83.5767 67.4907 83.0167C67.9387 82.4513 68.5308 81.9339 69.2509 81.8752C69.7203 81.8379 70.1897 82.0032 70.5951 82.2433C70.9791 82.4673 71.3258 82.7713 71.5339 83.1607C72.2539 84.5369 71.1071 86.3611 70.3604 87.4972C69.7576 88.4093 69.2722 89.4495 68.4561 90.1802C67.7414 90.8203 67.128 91.4444 66.2479 91.8765C64.5357 92.7192 62.4981 92.8792 60.6472 92.4525C60.3005 92.3725 59.9538 92.2765 59.6177 92.1591L59.6231 92.1698Z" fill="black"/>
<path d="M56.0713 163.187C56.0979 162.722 56.1193 163.853 55.9539 164.957C55.5592 167.651 54.8018 170.414 51.468 170.297C50.4172 170.259 49.4891 169.838 49.0037 168.873C48.3956 167.662 48.5823 166.462 49.0891 165.235C49.4571 164.339 49.9372 163.491 50.2359 162.568C50.5346 161.645 50.6359 160.616 50.2465 159.73C50.0919 159.383 49.8518 159.058 49.5051 158.893C49.1904 158.743 48.8224 158.749 48.481 158.818C47.5635 158.999 46.7474 159.639 46.3527 160.488C46.1127 161.005 46.022 161.576 45.9367 162.136C45.8087 162.995 45.6753 163.853 45.526 164.707C45.1739 166.707 44.0911 168.718 42.2829 169.769C40.3893 170.867 38.1757 170.291 36.3515 169.331C32.7884 167.459 30.6174 162.888 30.9482 158.946C31.0122 158.178 31.2149 157.474 31.3802 156.732C31.5722 155.884 31.6949 154.962 32.2763 154.273C32.8471 153.601 33.7912 153.292 34.6659 153.436C35.5354 153.58 36.3088 154.156 36.7622 154.914C37.1889 155.628 37.3383 156.471 37.6423 157.25C37.941 158.029 38.4798 158.802 39.2905 158.999C39.9093 159.149 40.576 158.914 41.0721 158.519C41.5681 158.125 41.9202 157.57 42.2295 157.01C42.9443 155.703 43.4617 154.284 44.2831 153.047C45.1046 151.809 46.3314 150.716 47.8089 150.54C48.0329 150.513 48.2623 150.508 48.4863 150.556C48.7584 150.609 49.0144 150.742 49.2651 150.87C49.4998 150.87 49.9478 151.222 50.1665 151.329C50.5186 151.51 50.8759 151.686 51.228 151.873C51.6494 152.097 52.0441 152.364 52.4175 152.657C53.1162 153.207 53.7296 153.852 54.2364 154.588C55.3405 156.204 55.8312 158.141 56.0072 160.072C56.1033 161.112 56.1086 162.157 56.0713 163.203V163.187Z" fill="black"/>
<path d="M59.6065 97.4776C59.8946 97.8136 60.0919 98.219 60.2092 98.6457C60.6093 100.097 60.1186 101.633 59.5745 103.041C59.1211 104.214 58.3744 105.441 58.0917 106.663C57.905 107.479 57.8463 108.215 57.4622 108.994C56.6515 110.631 55.1526 111.154 53.3977 110.882C51.2588 110.546 49.1786 109.852 47.285 108.796C46.3995 108.306 45.6154 107.762 44.7087 107.308C43.7592 106.828 42.8471 106.279 41.983 105.665C41.2149 105.127 40.4735 104.534 39.9081 103.782C39.3427 103.036 38.9693 102.107 39.0226 101.174C39.076 100.235 39.6094 99.3018 40.4628 98.9178C41.0122 98.6671 41.6416 98.6564 42.239 98.7311C43.4125 98.8751 44.522 99.3285 45.6155 99.7765C46.3195 100.065 47.0236 100.353 47.733 100.641C49.3119 101.286 51.3548 102.225 53.003 101.19C54.2138 100.433 54.5232 98.8111 55.462 97.739C55.9474 97.1896 56.6088 96.7895 57.3342 96.6775C58.0597 96.5655 58.8331 96.7575 59.3825 97.2429C59.4678 97.3176 59.5425 97.3923 59.6118 97.4776H59.6065Z" fill="black"/>
<path d="M52.9499 121.576C51.7818 121.891 50.5496 121.789 49.4082 121.395C45.2797 119.976 40.6284 118.226 36.6386 115.309C34.4303 113.692 35.2678 111.324 37.8494 110.284C40.7031 109.132 53.158 113.826 54.7848 116.669C55.2596 117.501 55.3769 118.829 55.0835 119.746C54.7688 120.723 54.0594 121.283 52.9553 121.576H52.9499Z" fill="black"/>
<path d="M230.732 84.1C230.385 87.7591 228.278 89.8234 224.96 89.7807C221.765 89.7381 219.045 87.8925 219.12 84.3667C219.189 81.017 221.621 78.8727 224.902 78.7287C228.385 78.574 230.124 80.985 230.732 84.1Z" fill="black"/>
<path d="M57.2703 197.516C56.4755 200.594 55.0833 203.149 51.4776 202.914C47.8718 202.68 46.3303 200.178 46.7943 196.887C47.2584 193.622 49.44 191.66 52.9337 192.177C55.8408 192.609 57.2383 194.604 57.2703 197.516Z" fill="black"/>
<path d="M199.896 225.755C199.875 228.768 198.824 231.083 195.704 231.441C192.242 231.835 189.933 230.144 189.687 226.555C189.49 223.674 190.893 221.306 193.821 220.858C197.368 220.319 199.198 222.575 199.896 225.755Z" fill="black"/>
<path d="M83.7804 61.2654C80.852 60.8173 79.0705 59.2011 79.1345 56.1928C79.1878 53.7018 80.7347 52.0856 83.1936 51.8722C86.2074 51.6109 88.1329 53.2964 88.3516 56.2354C88.581 59.2651 86.6874 60.8493 83.7751 61.2654H83.7804Z" fill="black"/>
<path d="M139.035 186.886C118.046 187.158 102.151 179.216 90.5171 162.616C84.639 154.226 83.6309 144.673 83.0121 134.959C82.8681 132.687 83.5082 130.153 86.1592 129.716C88.9702 129.252 89.9357 131.599 90.3677 133.887C90.7838 136.08 90.9598 138.32 91.1838 140.539C93.0561 159 106.236 173.487 124.399 177.882C141.227 181.952 156.141 178.234 169.695 168.014C176.96 162.536 179.76 154.316 182.374 146.118C183.729 141.867 184.406 137.408 185.611 133.103C186.23 130.895 187.484 128.788 190.332 129.641C192.482 130.287 192.866 132.42 192.551 134.239C190.124 148.326 187.329 162.728 175.802 172.308C165.172 181.141 153.149 188.31 139.024 186.886H139.035Z" fill="black"/>
<path d="M106.775 119.011C106.498 113.383 107.047 107.836 108.829 102.491C110.098 98.6776 112.781 96.0213 116.888 95.8186C120.676 95.6266 123.129 98.2296 124.484 101.451C129.354 112.999 129.397 124.745 124.159 136.069C120.697 143.558 113.971 143.472 109.725 136.362C106.519 130.996 106.572 125.001 106.77 119.016L106.775 119.011Z" fill="black"/>
<path d="M149.116 118.173C149.564 111.949 149.079 105.425 153.682 100.256C158.366 94.9918 163.321 95.0132 165.95 101.195C170.548 112.002 172.271 123.363 167.769 134.767C166.228 138.677 163.657 142.048 158.766 141.824C153.629 141.59 152.295 137.717 151.234 133.546C149.949 128.495 148.38 123.507 149.111 118.173H149.116Z" fill="black"/>
<path d="M156.136 49.2799C156.152 49.9893 156.258 50.7041 156.216 51.4242C156.162 52.347 156.008 53.2644 155.762 54.1552C155.618 54.6619 155.432 55.1847 155.037 55.5367C154.775 55.7661 154.445 55.9047 154.114 56.0168C153.559 56.2034 152.962 56.3261 152.386 56.2141C151.218 55.9847 150.428 54.8273 150.204 53.6592C149.98 52.491 150.194 51.2909 150.311 50.1121C150.428 48.9279 150.444 47.6691 149.868 46.6289C149.543 46.0422 148.908 45.5141 148.257 45.6848C147.889 45.7808 147.607 46.0796 147.372 46.3836C147.015 46.8477 146.716 47.3544 146.486 47.8878C145.686 49.712 145.665 51.7976 144.929 53.6485C144.694 54.2352 144.342 54.8433 143.75 55.0674C143.137 55.302 142.411 55.0406 141.969 54.5552C141.526 54.0699 141.328 53.4084 141.264 52.7524C141.2 52.1016 141.254 51.4402 141.248 50.7841C141.243 50.0214 141.152 49.2586 140.982 48.5172C140.854 47.9625 140.592 47.3277 140.032 47.2157C139.419 47.093 138.902 47.6851 138.619 48.2452C138.165 49.1466 138.144 50.2294 137.621 51.0508C137.189 51.7336 136.773 52.443 136.24 53.0564C135.018 54.4593 133.541 54.4806 132.079 53.3604C130.628 52.251 130.367 50.4694 130.612 48.7625C130.895 46.741 131.706 44.778 132.298 42.8258C133.242 39.7214 134.405 36.5051 136.859 34.3875C137.637 33.7154 138.635 33.1553 139.648 33.342C140.811 33.5607 141.579 34.7075 141.905 35.8436C142.23 36.9798 142.262 38.1959 142.651 39.3161C142.779 39.6841 142.955 40.0522 143.243 40.3189C143.494 40.5536 143.814 40.6976 144.145 40.7989C145.1 41.087 146.166 40.9803 147.052 40.5162C148.823 39.5774 149.564 37.4918 150.716 35.849C151.004 35.4329 151.346 35.0328 151.804 34.8248C152.711 34.4194 153.815 34.9369 154.397 35.7423C154.978 36.5477 155.165 37.5612 155.336 38.5373C155.64 40.2815 155.912 41.9457 155.981 43.7006C156.045 45.4235 156.205 47.1517 156.141 48.8639C156.136 49.0026 156.136 49.1466 156.141 49.2853L156.136 49.2799Z" fill="black"/>
<path d="M187.164 62.966C188.044 60.5817 189.724 58.5334 191.559 56.7519C192.509 55.8291 193.517 54.9543 194.663 54.2982C196.642 53.1674 198.984 52.7407 201.251 52.9221C201.944 52.9754 202.632 53.0874 203.294 53.2954C204.761 53.7542 206.02 54.6716 207.14 55.7064C208.308 56.7839 209.289 57.7653 209.753 59.3175C209.983 60.091 210.089 60.9231 209.865 61.6965C209.641 62.4699 209.039 63.1687 208.254 63.3287C207.79 63.4247 207.3 63.3287 206.852 63.174C205.619 62.7366 204.622 61.8298 203.593 61.0244C202.563 60.219 201.379 59.4722 200.067 59.4616C199.795 59.4616 199.507 59.4935 199.277 59.6376C198.888 59.8776 198.733 60.379 198.739 60.8377C198.739 61.4831 199.011 62.1286 199.459 62.5926C199.853 62.9927 200.365 63.254 200.835 63.5634C201.544 64.0328 202.179 64.6462 202.542 65.4143C202.904 66.1824 202.968 67.1159 202.584 67.8733C202.078 68.8654 200.792 69.3881 199.741 69.02C199.053 68.78 198.52 68.2359 198.045 67.6865C197.57 67.1371 197.112 66.5451 196.493 66.161C195.874 65.777 195.037 65.6436 194.429 66.0384C193.815 66.4384 193.602 67.2652 193.693 67.996C193.773 68.62 194.034 69.2227 194.445 69.6975C194.909 70.2469 195.544 70.6202 196.093 71.0843C196.642 71.5483 197.144 72.1565 197.186 72.8766C197.213 73.346 197.032 73.81 196.781 74.2101C196.546 74.5834 196.237 74.9301 195.837 75.1222C194.439 75.8049 192.647 74.6047 191.538 73.826C190.642 73.2019 189.617 72.6845 188.908 71.8524C188.289 71.1217 187.681 70.4869 187.276 69.6015C186.486 67.8626 186.38 65.825 186.854 63.9901C186.945 63.6434 187.052 63.302 187.175 62.9713L187.164 62.966Z" fill="black"/>
<path d="M116.27 57.4303C116.734 57.4677 115.603 57.457 114.505 57.265C111.827 56.7956 109.085 55.9581 109.293 52.6351C109.357 51.5843 109.805 50.6721 110.787 50.2134C112.014 49.6373 113.209 49.8614 114.419 50.4002C115.305 50.7949 116.142 51.2962 117.054 51.6216C117.966 51.947 118.996 52.0803 119.892 51.7123C120.244 51.5683 120.575 51.3336 120.751 50.9976C120.905 50.6882 120.911 50.3201 120.857 49.9787C120.703 49.056 120.084 48.2239 119.252 47.8025C118.745 47.5465 118.174 47.4451 117.614 47.3438C116.761 47.1891 115.908 47.0344 115.054 46.8637C113.064 46.4583 111.086 45.3169 110.088 43.4766C109.043 41.5564 109.683 39.3534 110.691 37.5612C112.659 34.0514 117.289 32.0139 121.226 32.4513C121.988 32.5366 122.687 32.7553 123.428 32.9473C124.271 33.1606 125.189 33.31 125.866 33.9128C126.522 34.4995 126.805 35.4543 126.634 36.3237C126.463 37.1932 125.871 37.9453 125.103 38.3773C124.378 38.7827 123.53 38.9107 122.746 39.1881C121.962 39.4655 121.172 39.9829 120.953 40.7883C120.788 41.4017 121.001 42.0738 121.386 42.5858C121.77 43.0979 122.308 43.4606 122.863 43.786C124.149 44.5381 125.551 45.0928 126.768 45.9462C127.984 46.805 129.04 48.0585 129.173 49.5414C129.194 49.7654 129.189 49.9947 129.141 50.2134C129.077 50.4854 128.944 50.7362 128.805 50.9815C128.8 51.2162 128.437 51.6536 128.32 51.867C128.128 52.2137 127.941 52.5711 127.744 52.9124C127.509 53.3285 127.232 53.7125 126.928 54.0806C126.357 54.7633 125.695 55.3607 124.949 55.8408C123.306 56.9023 121.354 57.3343 119.423 57.457C118.382 57.521 117.332 57.4997 116.292 57.4303H116.27Z" fill="black"/>
<path d="M181.856 62.8008C181.515 63.0782 181.099 63.2648 180.672 63.3662C179.21 63.7235 177.685 63.1902 176.298 62.6088C175.135 62.1234 173.93 61.3446 172.719 61.0299C171.908 60.8218 171.177 60.7419 170.409 60.3365C168.799 59.4777 168.313 57.9681 168.638 56.2186C169.033 54.0903 169.785 52.0314 170.889 50.1699C171.407 49.3004 171.967 48.527 172.452 47.6362C172.959 46.7028 173.535 45.8066 174.17 44.9532C174.73 44.2011 175.343 43.4757 176.106 42.9317C176.869 42.3876 177.802 42.0409 178.741 42.1156C179.675 42.1956 180.592 42.7503 180.955 43.6144C181.189 44.1691 181.184 44.7986 181.093 45.396C180.917 46.5641 180.432 47.6576 179.957 48.7404C179.648 49.4391 179.338 50.1325 179.034 50.8313C178.346 52.3941 177.349 54.4104 178.336 56.0852C179.061 57.3121 180.672 57.6695 181.717 58.6402C182.256 59.1363 182.635 59.8138 182.726 60.5392C182.816 61.2646 182.603 62.038 182.101 62.5714C182.027 62.6514 181.947 62.7261 181.861 62.7954L181.856 62.8008Z" fill="black"/>
<path d="M157.949 55.472C157.672 54.2985 157.805 53.0663 158.227 51.9355C159.758 47.8444 161.64 43.2465 164.665 39.3366C166.34 37.1764 168.687 38.0778 169.652 40.6914C170.724 43.5771 165.689 55.8933 162.798 57.4402C161.955 57.8936 160.622 57.9736 159.715 57.6536C158.749 57.3122 158.211 56.5868 157.944 55.472H157.949Z" fill="black"/>
<path d="M230.092 158.349C229.382 158.344 228.662 158.424 227.947 158.36C227.025 158.274 226.118 158.093 225.232 157.816C224.731 157.656 224.213 157.453 223.877 157.048C223.653 156.781 223.531 156.445 223.429 156.109C223.264 155.549 223.157 154.946 223.291 154.375C223.557 153.218 224.742 152.466 225.915 152.279C227.089 152.092 228.283 152.343 229.457 152.503C230.63 152.663 231.889 152.716 232.951 152.178C233.548 151.874 234.097 151.255 233.948 150.599C233.863 150.225 233.575 149.937 233.276 149.692C232.823 149.324 232.326 149.004 231.804 148.753C230.006 147.894 227.926 147.804 226.102 147.009C225.52 146.758 224.928 146.385 224.726 145.787C224.512 145.169 224.8 144.449 225.296 144.022C225.792 143.595 226.464 143.419 227.121 143.377C227.777 143.334 228.433 143.409 229.089 143.425C229.852 143.441 230.614 143.377 231.361 143.232C231.921 143.126 232.561 142.88 232.695 142.326C232.839 141.712 232.262 141.184 231.708 140.88C230.822 140.395 229.739 140.336 228.934 139.792C228.262 139.339 227.569 138.896 226.976 138.347C225.616 137.082 225.643 135.6 226.811 134.175C227.969 132.762 229.755 132.565 231.457 132.858C233.468 133.21 235.404 134.079 237.335 134.741C240.407 135.786 243.587 137.056 245.619 139.579C246.264 140.379 246.792 141.398 246.568 142.4C246.312 143.558 245.139 144.283 243.992 144.577C242.845 144.865 241.629 144.854 240.498 145.206C240.125 145.323 239.751 145.483 239.474 145.761C239.234 146.001 239.074 146.321 238.967 146.646C238.647 147.59 238.717 148.662 239.154 149.559C240.029 151.361 242.093 152.172 243.699 153.372C244.104 153.676 244.493 154.028 244.685 154.493C245.059 155.41 244.504 156.498 243.683 157.053C242.861 157.608 241.837 157.762 240.856 157.896C239.101 158.141 237.431 158.36 235.671 158.37C233.948 158.381 232.214 158.482 230.508 158.36C230.369 158.349 230.225 158.344 230.086 158.344L230.092 158.349Z" fill="black"/>
<path d="M215.386 188.908C217.738 189.862 219.733 191.612 221.45 193.506C222.341 194.482 223.184 195.522 223.797 196.69C224.859 198.706 225.211 201.058 224.955 203.32C224.875 204.008 224.747 204.696 224.517 205.352C224.011 206.803 223.051 208.03 221.984 209.118C220.869 210.249 219.856 211.198 218.287 211.609C217.509 211.812 216.671 211.892 215.908 211.647C215.146 211.401 214.468 210.772 214.33 209.982C214.25 209.513 214.356 209.028 214.532 208.585C215.012 207.369 215.951 206.403 216.789 205.395C217.626 204.392 218.41 203.235 218.469 201.928C218.479 201.656 218.458 201.368 218.319 201.133C218.09 200.738 217.594 200.568 217.135 200.557C216.49 200.541 215.839 200.781 215.359 201.219C214.943 201.597 214.671 202.104 214.346 202.557C213.855 203.251 213.22 203.864 212.441 204.2C211.663 204.536 210.724 204.568 209.977 204.163C209.001 203.624 208.526 202.323 208.926 201.282C209.188 200.605 209.748 200.088 210.318 199.629C210.884 199.17 211.487 198.733 211.892 198.125C212.297 197.517 212.457 196.685 212.084 196.061C211.705 195.431 210.884 195.196 210.153 195.261C209.524 195.319 208.916 195.564 208.425 195.954C207.859 196.402 207.465 197.021 206.985 197.559C206.505 198.098 205.881 198.578 205.16 198.589C204.691 198.6 204.232 198.402 203.843 198.141C203.475 197.895 203.144 197.57 202.963 197.165C202.328 195.746 203.587 193.996 204.398 192.908C205.054 192.033 205.603 191.025 206.462 190.348C207.214 189.75 207.865 189.164 208.766 188.79C210.526 188.054 212.569 188.017 214.388 188.556C214.73 188.657 215.066 188.774 215.396 188.908H215.386Z" fill="black"/>
<path d="M223.264 118.238C223.211 118.702 223.264 117.571 223.488 116.477C224.048 113.816 224.971 111.101 228.289 111.426C229.334 111.527 230.236 112.007 230.662 113C231.196 114.248 230.934 115.432 230.353 116.627C229.932 117.496 229.398 118.318 229.046 119.219C228.689 120.12 228.524 121.145 228.865 122.051C228.998 122.409 229.217 122.75 229.553 122.931C229.857 123.097 230.225 123.118 230.566 123.07C231.495 122.942 232.348 122.355 232.791 121.534C233.063 121.033 233.185 120.472 233.303 119.912C233.484 119.064 233.665 118.216 233.868 117.368C234.338 115.395 235.543 113.453 237.415 112.514C239.373 111.533 241.549 112.242 243.309 113.309C246.75 115.395 248.638 120.088 248.073 124.004C247.961 124.766 247.721 125.454 247.507 126.185C247.262 127.023 247.086 127.935 246.462 128.585C245.854 129.226 244.888 129.471 244.029 129.274C243.171 129.076 242.435 128.458 242.024 127.673C241.64 126.932 241.544 126.084 241.288 125.289C241.037 124.494 240.546 123.689 239.752 123.444C239.143 123.257 238.461 123.444 237.943 123.817C237.421 124.185 237.037 124.713 236.695 125.252C235.9 126.511 235.303 127.897 234.407 129.082C233.511 130.271 232.22 131.284 230.732 131.364C230.508 131.375 230.278 131.364 230.06 131.311C229.788 131.236 229.542 131.093 229.302 130.954C229.068 130.938 228.641 130.564 228.433 130.436C228.091 130.234 227.745 130.036 227.403 129.828C226.998 129.578 226.619 129.29 226.262 128.97C225.6 128.377 225.024 127.695 224.566 126.932C223.558 125.252 223.195 123.289 223.136 121.353C223.104 120.307 223.158 119.262 223.264 118.227V118.238Z" fill="black"/>
<path d="M215.727 183.606C215.46 183.254 215.29 182.832 215.199 182.4C214.89 180.928 215.471 179.424 216.1 178.053C216.623 176.911 217.445 175.733 217.797 174.527C218.031 173.722 218.138 172.996 218.57 172.239C219.477 170.655 221.008 170.223 222.741 170.601C224.853 171.065 226.891 171.887 228.715 173.055C229.569 173.599 230.321 174.186 231.196 174.698C232.113 175.231 232.988 175.839 233.82 176.501C234.551 177.087 235.26 177.722 235.777 178.506C236.295 179.29 236.615 180.234 236.503 181.163C236.396 182.096 235.804 182.992 234.929 183.328C234.364 183.542 233.735 183.515 233.142 183.408C231.98 183.189 230.902 182.672 229.841 182.16C229.153 181.829 228.47 181.499 227.782 181.168C226.246 180.426 224.261 179.365 222.555 180.299C221.301 180.981 220.896 182.581 219.888 183.595C219.37 184.112 218.682 184.475 217.957 184.539C217.226 184.608 216.463 184.363 215.946 183.851C215.866 183.771 215.796 183.691 215.727 183.6V183.606Z" fill="black"/>
<path d="M223.84 159.955C225.024 159.715 226.251 159.891 227.366 160.35C231.404 162.014 235.938 164.046 239.741 167.204C241.848 168.948 240.866 171.263 238.226 172.143C235.308 173.119 223.163 167.679 221.712 164.74C221.285 163.881 221.253 162.547 221.605 161.651C221.979 160.696 222.72 160.179 223.84 159.955Z" fill="black"/>
<path d="M120.841 231.701C120.809 230.992 120.686 230.277 120.713 229.562C120.75 228.64 120.878 227.717 121.113 226.826C121.246 226.314 121.422 225.791 121.806 225.434C122.062 225.199 122.393 225.055 122.718 224.938C123.273 224.741 123.865 224.607 124.441 224.709C125.609 224.911 126.425 226.053 126.676 227.216C126.927 228.378 126.74 229.584 126.644 230.768C126.548 231.952 126.564 233.211 127.156 234.24C127.492 234.822 128.138 235.334 128.783 235.152C129.151 235.051 129.423 234.742 129.653 234.432C129.999 233.963 130.287 233.451 130.511 232.912C131.274 231.072 131.253 228.986 131.946 227.12C132.165 226.528 132.506 225.914 133.093 225.679C133.701 225.434 134.432 225.679 134.885 226.154C135.339 226.629 135.552 227.29 135.627 227.941C135.707 228.592 135.664 229.253 135.685 229.909C135.707 230.672 135.813 231.429 136 232.171C136.139 232.72 136.416 233.35 136.976 233.451C137.595 233.563 138.096 232.955 138.368 232.39C138.806 231.477 138.806 230.395 139.307 229.562C139.723 228.869 140.128 228.154 140.646 227.53C141.835 226.101 143.318 226.047 144.801 227.135C146.273 228.218 146.572 229.989 146.364 231.701C146.124 233.728 145.356 235.713 144.801 237.67C143.921 240.79 142.827 244.034 140.417 246.204C139.654 246.893 138.667 247.474 137.654 247.309C136.485 247.117 135.696 245.986 135.344 244.855C134.992 243.724 134.938 242.513 134.528 241.404C134.389 241.036 134.208 240.673 133.914 240.412C133.658 240.182 133.333 240.044 133.002 239.953C132.042 239.686 130.975 239.814 130.106 240.3C128.356 241.271 127.652 243.378 126.543 245.042C126.26 245.463 125.935 245.874 125.476 246.087C124.58 246.514 123.465 246.018 122.862 245.223C122.26 244.428 122.057 243.42 121.865 242.444C121.524 240.705 121.214 239.052 121.113 237.291C121.011 235.569 120.814 233.846 120.846 232.133C120.846 231.995 120.846 231.851 120.841 231.712V231.701Z" fill="black"/>
<path d="M89.5312 218.671C88.7044 221.071 87.0615 223.157 85.264 224.975C84.3359 225.914 83.3437 226.816 82.2129 227.493C80.2607 228.661 77.9297 229.141 75.6575 229.008C74.964 228.965 74.2706 228.875 73.6092 228.677C72.1317 228.251 70.8515 227.354 69.7154 226.346C68.5259 225.295 67.5231 224.335 67.0271 222.788C66.7817 222.02 66.659 221.194 66.8617 220.415C67.0644 219.636 67.6565 218.927 68.4406 218.751C68.9046 218.644 69.3954 218.729 69.8434 218.879C71.0862 219.289 72.0997 220.175 73.1505 220.959C74.2013 221.743 75.3961 222.463 76.7029 222.447C76.975 222.447 77.263 222.404 77.4924 222.255C77.8764 222.004 78.0204 221.503 78.0044 221.044C77.9884 220.399 77.7057 219.759 77.247 219.305C76.8469 218.911 76.3295 218.665 75.8548 218.361C75.1347 217.908 74.4893 217.305 74.1106 216.548C73.7319 215.785 73.6465 214.851 74.0199 214.089C74.5053 213.086 75.7801 212.537 76.8363 212.883C77.5297 213.107 78.0738 213.641 78.5645 214.179C79.0499 214.724 79.5246 215.3 80.1487 215.673C80.7728 216.046 81.6155 216.164 82.2183 215.753C82.8263 215.337 83.0184 214.51 82.9117 213.785C82.821 213.161 82.5436 212.569 82.1276 212.099C81.6475 211.56 81.0128 211.198 80.4474 210.75C79.882 210.302 79.3699 209.699 79.3166 208.984C79.2792 208.515 79.4499 208.051 79.6953 207.645C79.9247 207.267 80.2287 206.915 80.6181 206.712C81.9996 206.002 83.8185 207.165 84.9439 207.917C85.8507 208.525 86.8908 209.016 87.6163 209.838C88.251 210.558 88.8698 211.176 89.2965 212.057C90.1232 213.774 90.2726 215.812 89.8352 217.657C89.7552 218.004 89.6539 218.345 89.5365 218.681L89.5312 218.671Z" fill="black"/>
<path d="M160.526 222.725C160.062 222.693 161.193 222.682 162.297 222.853C164.985 223.269 167.743 224.043 167.604 227.376C167.562 228.427 167.13 229.35 166.164 229.83C164.948 230.433 163.753 230.235 162.526 229.718C161.636 229.344 160.788 228.854 159.87 228.55C158.953 228.246 157.918 228.134 157.032 228.518C156.686 228.667 156.355 228.907 156.19 229.249C156.04 229.563 156.04 229.926 156.104 230.267C156.28 231.185 156.915 232.006 157.758 232.406C158.27 232.652 158.841 232.742 159.401 232.833C160.259 232.972 161.118 233.105 161.972 233.26C163.967 233.622 165.972 234.721 167.012 236.54C168.1 238.439 167.503 240.653 166.532 242.466C164.639 246.013 160.051 248.152 156.11 247.8C155.347 247.731 154.643 247.523 153.896 247.352C153.048 247.155 152.125 247.021 151.442 246.435C150.77 245.859 150.472 244.909 150.621 244.04C150.77 243.17 151.352 242.402 152.109 241.954C152.829 241.533 153.672 241.389 154.451 241.09C155.229 240.797 156.008 240.263 156.211 239.452C156.366 238.834 156.136 238.167 155.742 237.666C155.347 237.164 154.797 236.807 154.243 236.497C152.941 235.772 151.528 235.249 150.29 234.417C149.053 233.585 147.975 232.353 147.81 230.87C147.783 230.646 147.783 230.417 147.831 230.198C147.89 229.926 148.018 229.67 148.151 229.424C148.151 229.19 148.509 228.742 148.621 228.528C148.807 228.176 148.983 227.819 149.175 227.467C149.405 227.046 149.671 226.656 149.97 226.283C150.525 225.589 151.176 224.976 151.912 224.48C153.533 223.386 155.475 222.912 157.406 222.752C158.446 222.666 159.491 222.661 160.537 222.709L160.526 222.725Z" fill="black"/>
<path d="M94.8427 218.724C95.1788 218.442 95.5895 218.244 96.0162 218.132C97.4724 217.743 99.0032 218.244 100.406 218.799C101.574 219.263 102.796 220.015 104.017 220.303C104.833 220.495 105.564 220.559 106.343 220.949C107.975 221.77 108.487 223.274 108.199 225.029C107.852 227.163 107.138 229.238 106.071 231.126C105.575 232.006 105.025 232.79 104.561 233.691C104.076 234.636 103.516 235.542 102.902 236.407C102.358 237.169 101.761 237.911 101.009 238.471C100.257 239.031 99.3286 239.399 98.3952 239.34C97.4564 239.282 96.5283 238.743 96.1496 237.884C95.9042 237.335 95.8989 236.705 95.9735 236.108C96.1282 234.934 96.5869 233.83 97.0403 232.742L97.9204 230.63C98.5765 229.056 99.5313 227.019 98.5072 225.36C97.7604 224.144 96.1389 223.824 95.0721 222.879C94.528 222.394 94.128 221.727 94.0213 221.002C93.9146 220.276 94.112 219.503 94.6027 218.954C94.6774 218.874 94.7574 218.794 94.8374 218.724H94.8427Z" fill="black"/>
<path d="M118.894 225.552C119.198 226.72 119.086 227.957 118.686 229.094C117.24 233.217 115.453 237.852 112.509 241.82C110.882 244.018 108.514 243.159 107.495 240.572C106.364 237.708 111.144 225.29 113.997 223.685C114.835 223.215 116.163 223.109 117.075 223.408C118.046 223.728 118.606 224.442 118.894 225.552Z" fill="black"/>
</svg>
