<svg width="12802" height="2287" viewBox="0 0 12802 2287" fill="none" xmlns="http://www.w3.org/2000/svg">
<path d="M565 1284C565 1306.09 582.909 1324 605 1324H820C842.091 1324 860 1306.09 860 1284V923C860 900.909 877.909 883 900 883H1385C1407.09 883 1425 900.909 1425 923V1284C1425 1306.09 1442.91 1324 1465 1324H1680C1702.09 1324 1720 1306.09 1720 1284V923C1720 900.909 1737.91 883 1760 883H2245C2267.09 883 2285 900.909 2285 923V1408C2285 1430.09 2267.09 1448 2245 1448H1895C1872.91 1448 1855 1465.91 1855 1488V1681C1855 1703.09 1872.91 1721 1895 1721H2245C2267.09 1721 2285 1738.91 2285 1761V2246C2285 2268.09 2267.09 2286 2245 2286H1760C1737.91 2286 1720 2268.09 1720 2246V1929C1720 1906.91 1702.09 1889 1680 1889H1330C1307.91 1889 1290 1871.09 1290 1849V1488C1290 1465.91 1272.09 1448 1250 1448H1035C1012.91 1448 995 1465.91 995 1488V1849C995 1871.09 977.091 1889 955 1889H470C447.909 1889 430 1871.09 430 1849V1488C430 1465.91 412.091 1448 390 1448H40C17.9086 1448 0 1430.09 0 1408V923C0 900.909 17.9086 883 40 883H525C547.091 883 565 900.909 565 923V1284ZM1244 2185C1244 2207.09 1226.09 2225 1204 2225H1046C1023.91 2225 1006 2207.09 1006 2185V2027C1006 2004.91 1023.91 1987 1046 1987H1204C1226.09 1987 1244 2004.91 1244 2027V2185Z" fill="black"/>
<path d="M8111.4 1129.64H7705.52V2286.45H7404.5V1129.64H6998.62V883H8111.4V1129.64ZM11675.8 1129.64H11269.9V2286.45H10968.9V1129.64H10563V883H11675.8V1129.64ZM3027.98 883C3133.22 883 3224.68 901.792 3302.35 939.377C3381.28 976.962 3442.04 1030.21 3484.64 1099.11C3527.24 1166.77 3548.54 1245.7 3548.54 1335.9C3548.54 1426.1 3527.24 1505.66 3484.64 1574.56C3442.04 1643.47 3381.28 1696.72 3302.35 1734.3C3224.68 1771.89 3133.22 1790.68 3027.98 1790.68H2774.28V2286.37H2483V883H3027.98ZM4375.11 883C4508.43 883 4626.32 912.615 4728.78 971.845C4832.48 1029.84 4912.72 1111.9 4969.51 1218.02C5027.53 1324.14 5056.54 1446.91 5056.54 1586.35C5056.54 1724.55 5027.53 1846.71 4969.51 1952.83C4912.72 2058.95 4832.48 2141.01 4728.78 2199.01C4626.32 2257 4508.43 2286 4375.11 2286C4241.79 2286 4123.9 2257 4021.43 2199.01C3918.97 2141.01 3838.73 2058.95 3780.71 1952.83C3723.93 1846.71 3695.54 1724.55 3695.54 1586.35C3695.54 1446.91 3723.93 1324.14 3780.71 1218.02C3838.73 1111.9 3918.97 1029.84 4021.43 971.845C4123.9 912.615 4241.79 883 4375.11 883ZM5504.54 2286H5203.54V883H5504.54V2286ZM9237.4 1125.75H8559.48V1454.5H9237.4V1693.43H8559.48V2045.16H9237.4V2286H8258.4V883H9237.4V1125.75ZM12801.8 1125.75H12123.9V1454.5H12801.8V1693.43H12123.9V2045.16H12801.8V2286H11822.8V883H12801.8V1125.75ZM6575.85 1820.17V883H6851.62V2279.45H6539.5L5931.19 1320.35V2279.45H5651.54V883H5979.74L6575.85 1820.17ZM4375.11 1108.81C4257.84 1108.81 4165.25 1152 4097.35 1238.38C4030.69 1324.75 3997.36 1440.74 3997.36 1586.35C3997.36 1729.49 4030.69 1844.86 4097.35 1932.47C4165.25 2018.85 4257.84 2062.04 4375.11 2062.04C4493.62 2062.04 4586.2 2018.85 4652.86 1932.47C4720.76 1844.86 4754.71 1729.49 4754.71 1586.35C4754.71 1441.98 4720.76 1326.6 4652.86 1240.23C4586.2 1152.62 4493.62 1108.81 4375.11 1108.81ZM10415.9 1679.22H9676V1452H10415.9V1679.22ZM2774.28 1570.81H2981C3064.94 1570.81 3129.46 1550.76 3174.56 1510.67C3220.92 1470.58 3244.1 1412.32 3244.1 1335.9C3244.1 1260.73 3220.92 1203.73 3174.56 1164.89C3129.46 1124.8 3064.94 1104.75 2981 1104.75H2774.28V1570.81Z" fill="black"/>
<path d="M12380.8 452.398V164.579H12526.7C12538.4 164.579 12551.1 167.959 12564.9 174.719C12578.7 181.219 12590.4 191.359 12600 205.139C12609.9 218.659 12614.8 235.819 12614.8 256.619C12614.8 277.679 12609.7 295.619 12599.6 310.439C12589.4 324.999 12577.1 336.048 12562.5 343.588C12548.2 351.128 12534.7 354.898 12522 354.898H12416.7V308.099H12502.5C12511.1 308.099 12520.3 303.809 12530.2 295.229C12540.3 286.649 12545.4 273.779 12545.4 256.619C12545.4 238.939 12540.3 226.979 12530.2 220.739C12520.3 214.499 12511.6 211.379 12504 211.379H12444V452.398H12380.8ZM12554.7 316.679L12626.5 452.398H12557.1L12486.9 316.679H12554.7ZM12490 623.997C12446.8 623.997 12406.4 615.937 12368.7 599.817C12331 583.697 12297.9 561.337 12269.3 532.738C12240.7 504.138 12218.3 470.988 12202.2 433.288C12186.1 395.588 12178 355.158 12178 311.999C12178 268.839 12186.1 228.409 12202.2 190.709C12218.3 153.009 12240.7 119.859 12269.3 91.2596C12297.9 62.6597 12331 40.2999 12368.7 24.1799C12406.4 8.05998 12446.8 0 12490 0C12533.2 0 12573.6 8.05998 12611.3 24.1799C12649 40.2999 12682.1 62.6597 12710.7 91.2596C12739.3 119.859 12761.7 153.009 12777.8 190.709C12793.9 228.409 12802 268.839 12802 311.999C12802 355.158 12793.9 395.588 12777.8 433.288C12761.7 470.988 12739.3 504.138 12710.7 532.738C12682.1 561.337 12649 583.697 12611.3 599.817C12573.6 615.937 12533.2 623.997 12490 623.997ZM12490 549.118C12533.7 549.118 12573.5 538.458 12609.3 517.138C12645.2 495.818 12673.8 467.218 12695.1 431.338C12716.5 395.458 12727.1 355.678 12727.1 311.999C12727.1 268.319 12716.5 228.539 12695.1 192.659C12673.8 156.779 12645.2 128.179 12609.3 106.86C12573.5 85.5396 12533.7 74.8797 12490 74.8797C12446.3 74.8797 12406.5 85.5396 12370.7 106.86C12334.8 128.179 12306.2 156.779 12284.9 192.659C12263.5 228.539 12252.9 268.319 12252.9 311.999C12252.9 355.678 12263.5 395.458 12284.9 431.338C12306.2 467.218 12334.8 495.818 12370.7 517.138C12406.5 538.458 12446.3 549.118 12490 549.118Z" fill="black"/>
</svg>
