<svg width="2285" height="1403" viewBox="0 0 2285 1403" fill="none" xmlns="http://www.w3.org/2000/svg">
<path d="M565 401C565 423.091 582.909 441 605 441H820C842.091 441 860 423.091 860 401V40C860 17.9086 877.909 0 900 0H1385C1407.09 0 1425 17.9086 1425 40V401C1425 423.091 1442.91 441 1465 441H1680C1702.09 441 1720 423.091 1720 401V40C1720 17.9086 1737.91 0 1760 0H2245C2267.09 0 2285 17.9086 2285 40V525C2285 547.091 2267.09 565 2245 565H1895C1872.91 565 1855 582.909 1855 605V798C1855 820.091 1872.91 838 1895 838H2245C2267.09 838 2285 855.909 2285 878V1363C2285 1385.09 2267.09 1403 2245 1403H1760C1737.91 1403 1720 1385.09 1720 1363V1046C1720 1023.91 1702.09 1006 1680 1006H1330C1307.91 1006 1290 988.091 1290 966V605C1290 582.909 1272.09 565 1250 565H1035C1012.91 565 995 582.909 995 605V966C995 988.091 977.091 1006 955 1006H470C447.909 1006 430 988.091 430 966V605C430 582.909 412.091 565 390 565H40C17.9086 565 0 547.091 0 525V40C0 17.9086 17.9086 0 40 0H525C547.091 0 565 17.9086 565 40V401ZM1244 1302C1244 1324.09 1226.09 1342 1204 1342H1046C1023.91 1342 1006 1324.09 1006 1302V1144C1006 1121.91 1023.91 1104 1046 1104H1204C1226.09 1104 1244 1121.91 1244 1144V1302Z" fill="white"/>
</svg>
